<svg width="100" height="22" viewBox="0 0 100 22" fill="none" xmlns="http://www.w3.org/2000/svg">
<path d="M39.8112 11.1691L38.0832 6.5699C38.0673 6.52846 38.0391 6.49282 38.0025 6.46769C37.9659 6.44256 37.9225 6.4291 37.8781 6.4291C37.8337 6.4291 37.7903 6.44256 37.7537 6.46769C37.717 6.49282 37.689 6.52846 37.6729 6.5699L35.945 11.1699C35.933 11.2025 35.9292 11.2376 35.9338 11.272C35.9385 11.3065 35.9515 11.3393 35.9718 11.3675C35.992 11.3958 36.0188 11.4187 36.0499 11.4343C36.081 11.4498 36.1154 11.4575 36.1501 11.4566H39.6207C39.6724 11.4572 39.7223 11.4382 39.7606 11.4034C39.7987 11.3686 39.8223 11.3206 39.8266 11.2691C39.8298 11.2353 39.8245 11.2012 39.8112 11.1699V11.1691ZM40.6163 13.75H35.1398C35.0952 13.7503 35.0516 13.7642 35.015 13.7898C34.9784 13.8154 34.9504 13.8516 34.9347 13.8934L33.8509 16.7625C33.8353 16.8043 33.8074 16.8403 33.7709 16.8659C33.7345 16.8916 33.6911 16.9055 33.6465 16.9059H31.2722C31.2359 16.9064 31.2001 16.8979 31.168 16.8811C31.1359 16.8643 31.1084 16.8398 31.0881 16.8097C31.0679 16.7797 31.0554 16.745 31.0518 16.7089C31.0483 16.6728 31.0537 16.6364 31.0678 16.603L36.5295 3.19637C36.5459 3.1558 36.5745 3.12139 36.6115 3.09803C36.6484 3.07467 36.6918 3.06354 36.7354 3.06622H39.0045C39.0476 3.06648 39.0898 3.07882 39.1262 3.10183C39.1626 3.12484 39.1918 3.15759 39.2104 3.19637L44.6715 16.603C44.6855 16.6365 44.691 16.673 44.6874 16.7092C44.6838 16.7454 44.6712 16.7801 44.6509 16.8102C44.6306 16.8403 44.6031 16.865 44.5708 16.8818C44.5386 16.8986 44.5027 16.9072 44.4663 16.9066H42.0957C42.0509 16.9063 42.0073 16.8923 41.9707 16.8666C41.9341 16.8408 41.9062 16.8046 41.8906 16.7625L40.8067 13.8934C40.7965 13.8511 40.7719 13.8137 40.7372 13.7875C40.7025 13.7612 40.6598 13.7477 40.6163 13.7493V13.75ZM45.8001 7.76621H47.8362C47.8937 7.76731 47.9485 7.79047 47.9894 7.83084C48.0304 7.87113 48.0542 7.92569 48.056 7.98312V16.6912C48.0542 16.7486 48.0303 16.8029 47.9893 16.843C47.9484 16.8831 47.8935 16.9059 47.8362 16.9066H45.8009C45.7434 16.9061 45.6884 16.8834 45.6473 16.8433C45.6062 16.8031 45.5822 16.7486 45.5803 16.6912V7.98312C45.58 7.95422 45.5855 7.92562 45.5965 7.89893C45.6076 7.87223 45.6239 7.84804 45.6445 7.82775C45.6651 7.80753 45.6895 7.79165 45.7164 7.78106C45.7433 7.77047 45.772 7.7654 45.8009 7.76621H45.8001ZM55.4663 9.88532C55.4646 9.9429 55.4409 9.9976 55.3999 10.0381C55.359 10.0786 55.3041 10.1019 55.2465 10.103H55.1876C54.1773 10.103 53.445 10.3324 52.9766 10.8089C52.5082 11.2853 52.2737 12.0633 52.2737 13.1574V16.6758C52.2718 16.7331 52.2481 16.7875 52.2073 16.8279C52.1666 16.8682 52.1119 16.8914 52.0545 16.8927H50.0472C49.9899 16.8914 49.9352 16.8682 49.8945 16.8279C49.8537 16.7875 49.83 16.7331 49.8281 16.6758V7.98312C49.83 7.92569 49.8538 7.87113 49.8948 7.83084C49.9356 7.79047 49.9905 7.76731 50.0479 7.76621H52.0391C52.0968 7.76716 52.1518 7.79018 52.1929 7.83054C52.2339 7.87091 52.2579 7.92554 52.2597 7.98312V9.69856H52.3031C52.5065 9.04694 52.9051 8.47356 53.445 8.05591C54.0094 7.65782 54.6886 7.45532 55.3788 7.47944H55.481V9.88606H55.4663V9.88532ZM61.0163 9.80003C60.9593 9.80098 60.9047 9.82371 60.864 9.86371C60.8231 9.90363 60.7992 9.95768 60.7972 10.0147V13.6339C60.77 13.9169 60.8479 14.1993 61.0163 14.428C61.1634 14.5853 61.4119 14.6574 61.7781 14.6574H61.9832C62.0406 14.6587 62.0952 14.6819 62.136 14.7222C62.1767 14.7626 62.2005 14.817 62.2023 14.8743V16.6905C62.2005 16.7477 62.1767 16.8019 62.1359 16.842C62.0951 16.8822 62.0404 16.905 61.9832 16.9059H61.12C60.2259 16.9059 59.5384 16.675 59.0553 16.228C58.5715 15.7677 58.3376 15.1037 58.3376 14.1964V10.0147C58.3356 9.95746 58.3115 9.90319 58.2704 9.86319C58.2293 9.82319 58.1744 9.80054 58.117 9.80003H56.8435C56.7861 9.79878 56.7313 9.77547 56.6906 9.73495C56.6498 9.69444 56.6261 9.63981 56.6244 9.58238V7.98312C56.6261 7.92576 56.6498 7.87121 56.6906 7.83084C56.7314 7.79047 56.7862 7.76731 56.8435 7.76621H58.1178C58.1751 7.76547 58.23 7.74268 58.2709 7.7026C58.3119 7.66246 58.3358 7.60812 58.3376 7.55076V4.32063C58.3395 4.26334 58.3634 4.20897 58.4044 4.16884C58.4454 4.12871 58.5002 4.10592 58.5575 4.10519H60.5928C60.6501 4.10592 60.705 4.12871 60.7459 4.16884C60.7869 4.20897 60.8108 4.26334 60.8126 4.32063V7.55076C60.8145 7.60812 60.8384 7.66246 60.8794 7.7026C60.9204 7.74268 60.9752 7.76547 61.0325 7.76621H62.4965C62.554 7.76731 62.6088 7.79047 62.6497 7.83084C62.6906 7.87113 62.7145 7.92569 62.7163 7.98312V9.58238C62.7146 9.63995 62.6909 9.69466 62.6499 9.73518C62.609 9.77569 62.5541 9.79893 62.4965 9.80003H61.0163ZM70.3156 14.1824C70.5498 13.9347 70.7314 13.6422 70.8497 13.3225C70.9679 13.0028 71.0204 12.6625 71.0038 12.3221C71.0169 11.982 70.9629 11.6427 70.8448 11.3235C70.7267 11.0043 70.5469 10.7115 70.3156 10.4618C69.8198 10.0079 69.172 9.75613 68.4998 9.75613C67.8276 9.75613 67.1798 10.0079 66.684 10.4618C66.4498 10.7095 66.2681 11.002 66.1499 11.3216C66.0317 11.6414 65.9792 11.9816 65.9957 12.3221C65.9827 12.6622 66.0367 13.0015 66.1548 13.3207C66.2729 13.6399 66.4527 13.9327 66.684 14.1824C66.9216 14.419 67.2056 14.6039 67.5182 14.7253C67.8308 14.8468 68.1651 14.9023 68.5001 14.8883C68.8357 14.9069 69.1714 14.8536 69.4846 14.7319C69.7979 14.6102 70.0815 14.4228 70.3163 14.1824H70.3156ZM65.6288 16.6191C64.9412 16.2293 64.3817 15.6478 64.0185 14.9456C63.6328 14.1247 63.4327 13.2288 63.4327 12.3217C63.4327 11.4147 63.6328 10.5188 64.0185 9.69782C64.3861 8.999 64.9445 8.41893 65.6288 8.02503C66.3165 7.63804 67.0942 7.43922 67.8832 7.44856C68.5284 7.43275 69.1675 7.57672 69.7435 7.86768C70.2527 8.13731 70.6782 8.54143 70.9737 9.03606H71.0178V7.96694C71.0198 7.90981 71.0437 7.85569 71.0845 7.81562C71.1252 7.77554 71.1798 7.7526 71.2369 7.7515H73.2435C73.3008 7.75245 73.3556 7.77525 73.3965 7.8154C73.4373 7.85547 73.4613 7.90973 73.4634 7.96694V16.6743C73.4617 16.732 73.4379 16.7868 73.3967 16.8274C73.3556 16.8679 73.3005 16.8911 73.2428 16.8919H71.2384C71.1808 16.8908 71.1259 16.8676 71.0849 16.8271C71.044 16.7866 71.0202 16.7319 71.0185 16.6743V15.6081H70.9744C70.679 16.1033 70.2532 16.5077 69.7435 16.7772C69.1671 17.0671 68.5283 17.2108 67.8832 17.1956C67.0942 17.205 66.3165 17.0062 65.6288 16.6191ZM81.8259 14.1824C82.0598 13.9347 82.2414 13.6422 82.3598 13.3225C82.4781 13.0028 82.5304 12.6625 82.5142 12.3221C82.5274 11.982 82.473 11.6427 82.3554 11.3235C82.237 11.0043 82.0568 10.7115 81.8259 10.4618C81.3303 10.0077 80.6818 9.75576 80.0098 9.75576C79.3377 9.75576 78.6892 10.0077 78.1936 10.4618C77.9598 10.7097 77.7781 11.0022 77.6598 11.3218C77.5421 11.6415 77.4892 11.9817 77.5061 12.3221C77.4928 12.6622 77.5473 13.0015 77.6649 13.3207C77.7833 13.6399 77.9627 13.9327 78.1943 14.1824C78.4318 14.419 78.7156 14.6039 79.0289 14.7253C79.3414 14.8468 79.6752 14.9023 80.0105 14.8883C80.3458 14.9069 80.6818 14.8535 80.9951 14.7318C81.3083 14.61 81.5914 14.4227 81.8267 14.1824H81.8259ZM78.7804 16.7765C78.2708 16.5068 77.8451 16.1024 77.5495 15.6074H77.5054V16.675C77.5031 16.7324 77.4796 16.7868 77.4392 16.8272C77.398 16.8675 77.3436 16.8907 77.2862 16.8919H75.2502C75.1928 16.8907 75.1384 16.8675 75.0973 16.8272C75.0568 16.7868 75.0326 16.7324 75.0311 16.675V3.26769C75.0326 3.21045 75.0568 3.15611 75.0973 3.11588C75.1384 3.07565 75.1928 3.05262 75.2502 3.05151H77.2862C77.3436 3.05242 77.398 3.07528 77.4392 3.11537C77.4804 3.15545 77.5039 3.20972 77.5061 3.26695V9.04929H77.5502C77.8458 8.55488 78.2715 8.15062 78.7804 7.88018C79.3568 7.59047 79.9951 7.44679 80.6399 7.46179C81.4289 7.45231 82.2068 7.65194 82.8943 8.04047C83.5818 8.42959 84.1414 9.01032 84.5046 9.71179C84.9164 10.5235 85.1179 11.4255 85.0914 12.3353C85.1098 13.2445 84.909 14.1447 84.5054 14.9596C84.1377 15.6589 83.5789 16.239 82.8951 16.6324C82.2068 17.0194 81.4289 17.2183 80.6399 17.2089C79.9943 17.2141 79.3561 17.0655 78.7796 16.775L78.7804 16.7765ZM88.5186 16.8934H86.484C86.4267 16.8925 86.3715 16.8694 86.3303 16.8288C86.2892 16.7882 86.2656 16.7334 86.2642 16.6758V3.26843C86.2664 3.21093 86.2899 3.15638 86.3311 3.11612C86.3723 3.07585 86.4274 3.05298 86.4848 3.05225H88.5193C88.5767 3.05352 88.6311 3.07651 88.6715 3.11654C88.712 3.15658 88.7362 3.21064 88.7384 3.26769V16.675C88.7392 16.7173 88.7274 16.7588 88.7046 16.7943C88.6818 16.8298 88.6487 16.8577 88.6098 16.8743C88.5811 16.8867 88.5502 16.8927 88.5193 16.8919V16.8934H88.5186ZM93.3076 9.87209C92.9531 10.155 92.7098 10.5531 92.6193 10.9971C92.6127 11.0291 92.6142 11.0622 92.6223 11.0939C92.6304 11.1255 92.6458 11.1549 92.6671 11.1798C92.6877 11.2047 92.7142 11.2246 92.7443 11.2379C92.7737 11.2512 92.8068 11.2576 92.8392 11.2566H96.7053C96.7362 11.2568 96.7671 11.2502 96.7958 11.2376C96.8245 11.225 96.8495 11.2064 96.8701 11.1832C96.8914 11.16 96.9068 11.1327 96.9164 11.103C96.9259 11.0733 96.9289 11.042 96.9252 11.0111C96.8664 10.5801 96.6524 10.1853 96.3237 9.90076C95.9002 9.564 95.3708 9.38973 94.8303 9.40959C94.2862 9.39488 93.7517 9.55665 93.3076 9.87135L93.3068 9.87209H93.3076ZM98.2576 8.74782C99.048 9.59709 99.4436 10.7978 99.4429 12.3508V12.6118C99.4406 12.6691 99.4171 12.7233 99.3759 12.7634C99.3348 12.8035 99.2803 12.8264 99.223 12.8272H92.7664C92.734 12.8279 92.7024 12.8353 92.6737 12.8491C92.6443 12.8628 92.6186 12.8826 92.598 12.907C92.5767 12.9315 92.5612 12.9601 92.5524 12.991C92.5436 13.0219 92.5414 13.0542 92.5458 13.0861C92.6296 13.6261 92.9054 14.1177 93.323 14.4706C93.8355 14.8716 94.4745 15.0758 95.1245 15.0464C96.0951 15.0328 97.0237 14.6457 97.7164 13.9655C97.7392 13.9446 97.7664 13.929 97.7958 13.9198C97.8259 13.9106 97.8568 13.908 97.8877 13.9122C97.9186 13.9164 97.948 13.9273 97.9737 13.9441C98.0002 13.961 98.0223 13.9833 98.0384 14.0096L99.0193 15.4074C99.0473 15.452 99.0598 15.5046 99.0539 15.5569C99.0487 15.6092 99.0259 15.6583 98.9899 15.6964C98.5032 16.1114 97.9671 16.465 97.3943 16.7493C96.6803 17.0676 95.9053 17.225 95.1237 17.2103C94.2083 17.2311 93.3017 17.0226 92.4877 16.6037C91.7539 16.2182 91.148 15.6272 90.7451 14.903C90.3186 14.1264 90.1017 13.2521 90.1156 12.3662C90.0995 11.4789 90.3061 10.6016 90.7164 9.81473C91.1009 9.0929 91.6855 8.49738 92.4002 8.10003C93.1767 7.67657 94.0495 7.46268 94.934 7.47944C96.3686 7.46253 97.4671 7.89562 98.2576 8.74709V8.74782ZM48.3192 4.53901C48.3234 4.83445 48.24 5.12449 48.0793 5.37248C47.9187 5.62046 47.6882 5.81525 47.4168 5.93222C47.1455 6.04919 46.8456 6.08309 46.555 6.02964C46.2644 5.97618 45.9962 5.83777 45.7843 5.6319C45.5723 5.42603 45.4262 5.16194 45.3643 4.87303C45.3024 4.58412 45.3276 4.28334 45.4367 4.00874C45.5457 3.73413 45.7337 3.49803 45.977 3.33026C46.2202 3.1625 46.5077 3.07062 46.8031 3.06622H46.8104C47.2046 3.0644 47.5837 3.21755 47.8659 3.49265C48.1481 3.76775 48.311 4.14276 48.3192 4.53681V4.53828V4.53901Z" fill="#181D26"/>
<path d="M11.6389 0.261562L2.40074 4.08413C1.88715 4.29688 1.89232 5.02658 2.40942 5.23149L11.6861 8.91022C12.5012 9.23346 13.4089 9.23346 14.224 8.91022L23.5007 5.23149C24.0176 5.02658 24.023 4.29688 23.5092 4.08427L14.2712 0.261562C13.4284 -0.0871873 12.4817 -0.0871873 11.6389 0.261562Z" fill="#FCB400"/>
<path d="M13.7783 10.9188V20.109C13.7783 20.5459 14.2191 20.8454 14.6254 20.6843L24.9624 16.6719C25.0777 16.6263 25.1766 16.547 25.2463 16.4444C25.316 16.3418 25.3532 16.2206 25.3532 16.0966V6.90663C25.3532 6.46952 24.9124 6.17021 24.5061 6.33128L14.1691 10.3436C14.0538 10.3894 13.9549 10.4686 13.8852 10.5713C13.8156 10.6738 13.7783 10.795 13.7783 10.919" fill="#18BFFF"/>
<path d="M11.3644 11.393L8.29662 12.8743L7.98515 13.0248L1.50917 16.1278C1.0988 16.3258 0.574707 16.0267 0.574707 15.5707V6.94509C0.574707 6.7801 0.659302 6.63766 0.772748 6.53052C0.819285 6.48418 0.872086 6.44457 0.929609 6.41287C1.08423 6.32001 1.30496 6.29523 1.49264 6.36945L11.3129 10.2605C11.8121 10.4585 11.8513 11.158 11.3644 11.3932" fill="#F82B60"/>
<path d="M11.3641 11.393L8.2963 12.8743L0.772461 6.53038C0.819012 6.48409 0.871814 6.44453 0.929329 6.41287C1.08395 6.32001 1.30468 6.29523 1.49236 6.36945L11.3126 10.2605C11.8117 10.4585 11.8509 11.158 11.3641 11.3932" fill="black" fill-opacity="0.25"/>
</svg>
