<svg width="100" height="28" viewBox="0 0 100 28" fill="none" xmlns="http://www.w3.org/2000/svg">
<g clip-path="url(#clip0_636_1354)">
<path d="M19.2383 11.5615H10.8446C10.628 11.5615 10.4524 11.7372 10.4524 11.9539V16.0576C10.4524 16.2741 10.628 16.4504 10.8446 16.4504H14.119V21.5489C14.119 21.5489 13.3836 21.7995 11.3511 21.7995C8.95301 21.7995 5.60306 20.9233 5.60306 13.5568C5.60306 6.18865 9.09128 5.21922 12.3663 5.21922C15.2011 5.21922 16.4224 5.71839 17.1995 5.95882C17.4436 6.03369 17.6696 5.79055 17.6696 5.57383L18.6058 1.60878C18.6058 1.50749 18.5715 1.3854 18.4559 1.30241C18.1403 1.07737 16.215 0 11.3511 0C5.74767 0 0 2.38394 0 13.844C0 25.3045 6.5806 27.0123 12.126 27.0123C16.7175 27.0123 19.503 25.0501 19.503 25.0501C19.6178 24.9867 19.6301 24.8263 19.6301 24.7527V11.9539C19.6301 11.7372 19.4547 11.5615 19.2383 11.5615Z" fill="#161312"/>
<path d="M62.4951 1.37306C62.4951 1.15468 62.322 0.978516 62.1054 0.978516H57.3794C57.1635 0.978516 56.9879 1.15468 56.9879 1.37306C56.9879 1.3741 56.9893 10.5063 56.9893 10.5063H49.6225V1.37306C49.6225 1.15468 49.4487 0.978516 49.2325 0.978516H44.5067C44.2916 0.978516 44.1162 1.15468 44.1162 1.37306V26.1033C44.1162 26.3214 44.2916 26.4991 44.5067 26.4991H49.2325C49.4487 26.4991 49.6225 26.3214 49.6225 26.1033V15.5253H56.9893C56.9893 15.5253 56.9763 26.1024 56.9763 26.1033C56.9763 26.3214 57.1517 26.4991 57.3678 26.4991H62.1051C62.3215 26.4991 62.4946 26.3214 62.4951 26.1033V1.37306Z" fill="#161312"/>
<path d="M28.1562 4.61847C28.1562 2.91672 26.7918 1.5415 25.1086 1.5415C23.4271 1.5415 22.0615 2.91672 22.0615 4.61847C22.0615 6.31843 23.4271 7.69733 25.1086 7.69733C26.7918 7.69733 28.1562 6.31843 28.1562 4.61847Z" fill="#161312"/>
<path d="M27.8183 20.8867C27.8183 20.2531 27.8183 9.47109 27.8183 9.47109C27.8183 9.25432 27.6432 9.07715 27.4273 9.07715H22.7161C22.5 9.07715 22.3066 9.30006 22.3066 9.51675C22.3066 9.51675 22.3066 23.2534 22.3066 25.8719C22.3066 26.3526 22.6061 26.4953 22.9938 26.4953C22.9938 26.4953 25.0046 26.4953 27.2384 26.4953C27.704 26.4953 27.8183 26.2669 27.8183 25.8642C27.8183 24.9875 27.8183 21.5532 27.8183 20.8867Z" fill="#161312"/>
<path d="M80.4559 9.11426H75.7661C75.5509 9.11426 75.3759 9.29151 75.3759 9.50965V21.6357C75.3759 21.6357 74.1845 22.5074 72.4934 22.5074C70.8025 22.5074 70.3536 21.7401 70.3536 20.0844C70.3536 18.4265 70.3536 9.50965 70.3536 9.50965C70.3536 9.29151 70.1789 9.11426 69.9636 9.11426H65.2038C64.989 9.11426 64.813 9.29151 64.813 9.50965C64.813 9.50965 64.813 15.9673 64.813 20.8851C64.813 25.8032 67.5541 27.0064 71.325 27.0064C74.4183 27.0064 76.9125 25.2974 76.9125 25.2974C76.9125 25.2974 77.0313 26.1979 77.0849 26.3047C77.1388 26.4112 77.2787 26.5188 77.43 26.5188L80.4581 26.5055C80.6729 26.5055 80.8488 26.3278 80.8488 26.1107L80.8474 9.50965C80.8474 9.29151 80.6721 9.11426 80.4559 9.11426Z" fill="#161312"/>
<path d="M91.4239 22.4924C89.7971 22.4429 88.6938 21.7048 88.6938 21.7048V13.8732C88.6938 13.8732 89.7825 13.206 91.1179 13.0868C92.8068 12.9355 94.4341 13.4456 94.4341 17.4743C94.4341 21.7227 93.6996 22.561 91.4239 22.4924ZM93.2737 8.55875C90.6099 8.55875 88.7983 9.74719 88.7983 9.74719V1.37306C88.7983 1.15468 88.6237 0.978516 88.4083 0.978516H83.6688C83.4534 0.978516 83.2783 1.15468 83.2783 1.37306V26.1033C83.2783 26.3214 83.4534 26.4991 83.6695 26.4991C83.6698 26.4991 86.9567 26.4991 86.9577 26.4991C87.1058 26.4991 87.2179 26.4227 87.3008 26.2891C87.3825 26.1562 87.5005 25.1489 87.5005 25.1489C87.5005 25.1489 89.4384 26.9855 93.1071 26.9855C97.4141 26.9855 99.8841 24.8006 99.8841 17.1778C99.8841 9.55489 95.9392 8.55875 93.2737 8.55875Z" fill="#161312"/>
<path d="M41.4015 9.07507H37.8564C37.8564 9.07507 37.8511 4.39259 37.8511 4.39154C37.8511 4.21433 37.7597 4.12573 37.5549 4.12573H32.7238C32.5359 4.12573 32.4351 4.20831 32.4351 4.38884V9.22863C32.4351 9.22863 30.0141 9.8131 29.8504 9.86031C29.6873 9.9076 29.5674 10.0579 29.5674 10.2373V13.2786C29.5674 13.4973 29.7421 13.6737 29.9581 13.6737H32.4351C32.4351 13.6737 32.4351 16.8547 32.4351 20.9903C32.4351 26.4247 36.2471 26.9587 38.8195 26.9587C39.9947 26.9587 41.4007 26.5811 41.6328 26.4954C41.7732 26.4439 41.8547 26.2986 41.8547 26.1409L41.8587 22.7953C41.8587 22.5771 41.6744 22.4004 41.4669 22.4004C41.2604 22.4004 40.7318 22.4845 40.1877 22.4845C38.4464 22.4845 37.8564 21.6748 37.8564 20.6269C37.8564 19.5796 37.8562 13.6737 37.8562 13.6737H41.4015C41.6176 13.6737 41.7925 13.4973 41.7925 13.2786V9.46913C41.7925 9.25079 41.6176 9.07507 41.4015 9.07507Z" fill="#161312"/>
</g>
<defs>
<clipPath id="clip0_636_1354">
<rect width="100" height="27.1215" fill="white"/>
</clipPath>
</defs>
</svg>
