<svg width="106" height="32" viewBox="0 0 106 32" fill="none" xmlns="http://www.w3.org/2000/svg">
<path d="M33 3.00691V16L43 8.50399V4.50611C43 0.798086 38.765 -1.31579 35.8 0.908027" fill="#FBBC04"/>
<path d="M0 4.50611V8.50399L10 16V3.00691L7.2 0.908027C4.23 -1.31579 0 0.798086 0 4.50611Z" fill="#C5221F"/>
<path d="M3 32H10V15.3469L0 8V29.0612C0 30.6873 1.345 32 3 32Z" fill="#4285F4"/>
<path d="M33 32H40C41.66 32 43 30.6824 43 29.0612V8L33 15.3469" fill="#34A853"/>
<path d="M10 15.4091V3L21.5 11.5909L33 3V15.4091L21.5 24" fill="#EA4335"/>
<path d="M104.195 8.33984H106V23.5414H104.195V8.33984Z" fill="black"/>
<path d="M100.467 10.7179C100.114 10.7179 99.8093 10.5905 99.5545 10.3357C99.2998 10.081 99.1724 9.77665 99.1724 9.4228C99.1724 9.06894 99.2998 8.77171 99.5545 8.53109C99.8093 8.27631 100.114 8.14893 100.467 8.14893C100.821 8.14893 101.126 8.27631 101.38 8.53109C101.635 8.77171 101.763 9.06894 101.763 9.4228C101.763 9.77665 101.635 10.081 101.38 10.3357C101.14 10.5905 100.835 10.7179 100.467 10.7179ZM99.5758 12.7136H101.359V23.5415H99.5758V12.7136Z" fill="black"/>
<path d="M91.5876 23.8813C90.795 23.8813 90.0873 23.7256 89.4645 23.4142C88.8417 23.1029 88.3605 22.6782 88.0208 22.1404C87.6811 21.5884 87.5112 20.9656 87.5112 20.272C87.5112 19.1255 87.9429 18.2338 88.8063 17.5969C89.6697 16.9458 90.7596 16.6203 92.0759 16.6203C92.727 16.6203 93.3286 16.691 93.8806 16.8326C94.4468 16.9741 94.8785 17.1369 95.1757 17.3209V16.6627C95.1757 15.8559 94.8926 15.2119 94.3264 14.7307C93.7603 14.2353 93.0455 13.9876 92.1821 13.9876C91.5735 13.9876 91.0144 14.1221 90.5048 14.391C89.9953 14.6458 89.5919 15.0067 89.2947 15.4738L87.9359 14.4547C88.3605 13.8036 88.9408 13.294 89.6768 12.926C90.427 12.558 91.255 12.374 92.1609 12.374C93.6329 12.374 94.7865 12.7633 95.6215 13.5417C96.4708 14.3061 96.8954 15.3535 96.8954 16.684V23.5416H95.1757V21.9918H95.0908C94.7794 22.5155 94.3123 22.9613 93.6895 23.3293C93.0667 23.6973 92.3661 23.8813 91.5876 23.8813ZM91.7575 22.289C92.3661 22.289 92.9323 22.1333 93.456 21.8219C93.9797 21.5105 94.3972 21.093 94.7086 20.5693C95.02 20.0456 95.1757 19.4723 95.1757 18.8495C94.836 18.6231 94.4184 18.4391 93.9231 18.2975C93.4277 18.156 92.904 18.0852 92.3519 18.0852C91.3612 18.0852 90.611 18.2904 90.1014 18.7009C89.606 19.1114 89.3583 19.6422 89.3583 20.2933C89.3583 20.8877 89.5848 21.369 90.0377 21.737C90.4907 22.105 91.0639 22.289 91.7575 22.289Z" fill="black"/>
<path d="M69.6533 12.7137H71.373V14.3061H71.458C71.7694 13.7541 72.2364 13.294 72.8592 12.926C73.482 12.558 74.1402 12.374 74.8337 12.374C75.6264 12.374 76.3128 12.5651 76.8932 12.9473C77.4876 13.3294 77.9123 13.839 78.167 14.4759C78.5492 13.839 79.0517 13.3294 79.6744 12.9473C80.3114 12.5651 81.0474 12.374 81.8825 12.374C83.1281 12.374 84.0622 12.7562 84.685 13.5205C85.3219 14.2707 85.6404 15.2969 85.6404 16.599V23.5416H83.857V16.875C83.857 15.8701 83.6518 15.1412 83.2413 14.6882C82.8308 14.2353 82.2222 14.0088 81.4154 14.0088C80.8775 14.0088 80.3892 14.1645 79.9504 14.4759C79.5117 14.7873 79.1649 15.2048 78.9101 15.7286C78.6695 16.2523 78.5492 16.8184 78.5492 17.427V23.5416H76.7445V16.8963C76.7445 15.8772 76.5393 15.1412 76.1288 14.6882C75.7184 14.2353 75.1168 14.0088 74.3242 14.0088C73.7863 14.0088 73.298 14.1716 72.8592 14.4971C72.4205 14.8085 72.0737 15.2332 71.8189 15.771C71.5783 16.2947 71.458 16.8609 71.458 17.4695V23.5416H69.6533V12.7137Z" fill="black"/>
<path d="M59.8768 23.8812C58.4472 23.8812 57.1309 23.5344 55.9278 22.8408C54.7247 22.1473 53.7693 21.1919 53.0616 19.9746C52.3539 18.7574 52 17.4127 52 15.9407C52 14.4687 52.3539 13.124 53.0616 11.9068C53.7693 10.6895 54.7247 9.73413 55.9278 9.04057C57.1309 8.34702 58.4472 8.00024 59.8768 8.00024C60.9949 8.00024 62.0424 8.1984 63.019 8.59472C64.0098 8.99103 64.8236 9.55012 65.4606 10.272L64.1655 11.5671C63.6842 10.9726 63.0685 10.5197 62.3184 10.2083C61.5682 9.88274 60.7614 9.71997 59.898 9.71997C58.8223 9.71997 57.8173 9.98182 56.8832 10.5055C55.9632 11.0151 55.2201 11.744 54.6539 12.6923C54.1019 13.6265 53.8259 14.7093 53.8259 15.9407C53.8259 17.1721 54.1019 18.262 54.6539 19.2103C55.2201 20.1445 55.9702 20.8734 56.9044 21.3971C57.8386 21.9067 58.8364 22.1615 59.898 22.1615C60.9171 22.1615 61.7663 22.0058 62.4457 21.6944C63.1393 21.3688 63.7338 20.9442 64.2292 20.4205C64.5972 20.0242 64.8944 19.55 65.1209 18.998C65.3473 18.4318 65.4889 17.8091 65.5455 17.1297H59.9192V15.4524H67.2228C67.2935 15.8487 67.3289 16.2167 67.3289 16.5564C67.3289 17.4906 67.1803 18.4035 66.8831 19.2952C66.5858 20.1728 66.1117 20.9442 65.4606 21.6094C64.0593 23.1239 62.198 23.8812 59.8768 23.8812Z" fill="black"/>
</svg>
