<svg width="100" height="23" viewBox="0 0 100 23" fill="none" xmlns="http://www.w3.org/2000/svg">
<g clip-path="url(#clip0_636_1356)">
<path d="M34.4133 7.91736C34.4133 7.44027 34.0453 7.04883 33.5301 7.04883C33.015 7.04883 32.647 7.44027 32.647 7.91736V14.9635C32.647 15.4406 33.015 15.8321 33.5301 15.8321C34.0575 15.8321 34.4133 15.4406 34.4133 14.9635V7.91736Z" fill="#081D34"/>
<path d="M43.1102 7.04883C42.5951 7.04883 42.2393 7.44027 42.2393 7.91736V10.9267L42.2883 13.6179L41.2212 11.0979L39.8229 8.23542C39.3936 7.34241 38.9031 7.04883 38.2039 7.04883C37.1736 7.04883 36.7197 7.69716 36.7197 8.62686V14.9635C36.7197 15.4406 37.0754 15.8321 37.5906 15.8321C38.1058 15.8321 38.4615 15.4406 38.4615 14.9635L38.4492 11.9909L38.4124 8.94492L39.5531 11.734L40.9637 14.6454C41.4053 15.5751 41.8714 15.8443 42.5827 15.8443C43.5027 15.8443 43.981 15.2815 43.981 14.2418V7.91736C43.981 7.44027 43.6253 7.04883 43.1102 7.04883Z" fill="#081D34"/>
<path d="M50.4933 8.84707L52.4926 8.89601C52.9587 8.90823 53.3267 8.55349 53.3267 8.03971C53.3267 7.52593 52.9587 7.17117 52.4926 7.17117L46.7031 7.15894C46.2494 7.15894 45.8691 7.51369 45.8691 8.02747C45.8691 8.54125 46.2494 8.89601 46.7031 8.88377L48.7148 8.84707V14.9635C48.7148 15.4406 49.0827 15.8321 49.5979 15.8321C50.1253 15.8321 50.4933 15.4406 50.4933 14.9635V8.84707Z" fill="#081D34"/>
<path d="M56.4204 15.722H60.7256C61.1795 15.722 61.5475 15.3795 61.5475 14.9023C61.5475 14.4131 61.1795 14.0705 60.7256 14.0705L56.9846 14.0828V12.0398H60.2227C60.6643 12.0398 61.02 11.7095 61.02 11.257C61.02 10.7921 60.6643 10.4618 60.2227 10.4618L56.9846 10.4863V8.79816H60.7256C61.1795 8.79816 61.5475 8.45565 61.5475 7.96633C61.5475 7.47701 61.1795 7.14673 60.7256 7.14673L56.4326 7.15895C55.6476 7.15895 55.2061 7.59934 55.2061 8.38225V14.4987C55.2061 15.2816 55.6476 15.722 56.4204 15.722Z" fill="#081D34"/>
<path d="M68.5598 12.2356C69.7249 11.9298 70.4119 11.0246 70.4119 9.82571C70.4119 8.49233 69.541 7.15894 67.4558 7.15894H64.7573C63.9724 7.15894 63.5308 7.59932 63.5308 8.38223V14.9635C63.5308 15.4406 63.8988 15.8321 64.4385 15.8321C64.9659 15.8321 65.3461 15.4406 65.3461 14.9635L65.3339 12.6637H66.818L68.3266 15.3794C68.572 15.7954 69.0871 15.9666 69.5656 15.7219C70.0439 15.4651 70.1788 14.9512 69.9212 14.5354L68.5598 12.2356ZM65.3339 8.78591H67.4681C68.1917 8.78591 68.6456 9.23852 68.6456 9.91133C68.6456 10.5719 68.2163 11.0613 67.4926 11.0613H65.3339V8.78591Z" fill="#081D34"/>
<path d="M75.8295 15.8809C77.6204 15.8809 78.7733 15.0736 79.1658 13.7647C79.3743 13.0185 78.9328 12.4802 78.2704 12.4802C77.8656 12.4802 77.5958 12.6882 77.4363 13.1408C77.1911 13.8259 76.59 14.2541 75.7314 14.2541C74.3699 14.2541 73.7812 13.3365 73.7812 11.4282C73.7812 9.55659 74.3822 8.66359 75.7314 8.66359C76.5778 8.66359 77.0684 9.01835 77.375 9.83794C77.5468 10.3028 77.8289 10.5107 78.2459 10.5107C78.8837 10.5107 79.3498 9.99697 79.1536 9.28747C78.7611 7.84399 77.6204 7.03662 75.7805 7.03662C73.2538 7.03662 71.9658 8.57797 71.9658 11.4282C71.9658 14.3029 73.2538 15.8809 75.8295 15.8809Z" fill="#081D34"/>
<path d="M84.5502 15.8564C87.1506 15.8564 88.4385 14.2661 88.4385 11.428C88.4385 8.56558 87.1138 6.98755 84.5502 6.98755C81.9745 6.98755 80.6866 8.59005 80.6743 11.428C80.6743 14.2783 81.9868 15.8564 84.5502 15.8564ZM84.5502 14.2172C83.1029 14.2172 82.4774 13.2998 82.4774 11.428C82.4774 9.53198 83.1152 8.61452 84.538 8.61452C85.9731 8.61452 86.6477 9.53198 86.6355 11.428C86.6355 13.3119 85.9977 14.2172 84.5502 14.2172Z" fill="#081D34"/>
<path d="M99.8565 8.57797C99.8565 7.61157 99.2555 7.03662 98.3233 7.03662C97.5628 7.03662 96.9864 7.45254 96.7042 8.4067L95.7598 11.4771L95.1342 13.6913L94.5332 11.4771L93.5274 8.4067C93.2452 7.5137 92.7547 7.03662 91.896 7.03662C90.9516 7.03662 90.3628 7.59933 90.3628 8.57797V14.9635C90.3628 15.4406 90.7062 15.8321 91.2091 15.8321C91.712 15.8321 92.0555 15.4406 92.0555 14.9635L92.0432 11.8808L91.9574 8.57797L92.9264 11.9543L93.9567 14.939C94.1774 15.5996 94.5945 15.8199 95.1342 15.8199C95.6371 15.8199 96.0418 15.6363 96.2504 14.9635L97.2316 11.9543L98.2742 8.5535L98.1761 11.8808V14.9635C98.1761 15.4406 98.5318 15.8321 99.0225 15.8321C99.5253 15.8321 99.8688 15.4406 99.8688 14.9635L99.8565 8.57797Z" fill="#081D34"/>
<path d="M19.8542 12.5841C19.8542 12.788 19.7738 12.9835 19.6308 13.1276C19.4878 13.2717 19.2938 13.3528 19.0915 13.3528C18.8892 13.3528 18.6952 13.2717 18.5522 13.1276C18.4091 12.9835 18.3288 12.788 18.3288 12.5841V5.71718C18.3288 5.51333 18.4091 5.31782 18.5522 5.17368C18.6952 5.02953 18.8892 4.94855 19.0915 4.94855C19.2938 4.94855 19.4878 5.02953 19.6308 5.17368C19.7738 5.31782 19.8542 5.51333 19.8542 5.71718V12.5841ZM19.5894 17.342C19.4886 17.4436 16.6523 19.8258 11.4524 19.8258C6.25248 19.8258 3.43508 17.4564 3.31533 17.3547C3.23986 17.2906 3.17769 17.212 3.1324 17.1237C3.0871 17.0352 3.05956 16.9387 3.05136 16.8395C3.04317 16.7404 3.05446 16.6406 3.08462 16.5458C3.11477 16.4512 3.16319 16.3633 3.22708 16.2875C3.35872 16.134 3.54523 16.0392 3.74595 16.0237C3.94667 16.0082 4.14532 16.0734 4.29858 16.2049C4.3427 16.2367 6.87646 18.3075 11.446 18.3075C16.0156 18.3075 18.5683 16.224 18.5936 16.2049C18.7485 16.0745 18.9478 16.0102 19.149 16.0257C19.3504 16.0411 19.5377 16.135 19.6713 16.2875C19.7999 16.4387 19.8641 16.635 19.85 16.8336C19.8358 17.0322 19.7444 17.2173 19.5957 17.3483L19.5894 17.342ZM3.0443 5.71718C3.0557 5.51269 3.14696 5.32104 3.29813 5.18416C3.44931 5.04727 3.6481 4.97627 3.85107 4.98666C4.03923 4.99743 4.21677 5.07803 4.34945 5.21293C4.48214 5.34782 4.56056 5.52746 4.5696 5.71718V12.5714C4.5696 12.7752 4.48925 12.9707 4.34623 13.1148C4.2032 13.2591 4.00922 13.34 3.80695 13.34C3.60468 13.34 3.4107 13.2591 3.26767 13.1148C3.12465 12.9707 3.0443 12.7752 3.0443 12.5714V5.71718ZM6.87016 4.19262C6.88155 3.98811 6.97282 3.79648 7.12399 3.6596C7.27517 3.52271 7.47396 3.45171 7.67693 3.4621C7.86509 3.47287 8.04263 3.55347 8.17531 3.68837C8.30799 3.82326 8.38642 4.00289 8.39546 4.19262V14.3564C8.39546 14.5603 8.31511 14.7558 8.17209 14.8999C8.02906 15.044 7.83508 15.125 7.63281 15.125C7.43054 15.125 7.23656 15.044 7.09353 14.8999C6.95051 14.7558 6.87016 14.5603 6.87016 14.3564V4.19262ZM10.7149 3.81147C10.7149 3.60762 10.7953 3.41212 10.9383 3.26797C11.0813 3.12382 11.2753 3.04284 11.4775 3.04284C11.6798 3.04284 11.8738 3.12382 12.0169 3.26797C12.1599 3.41212 12.2402 3.60762 12.2402 3.81147V14.8646C12.2402 15.0684 12.1599 15.2639 12.0169 15.4081C11.8738 15.5523 11.6798 15.6332 11.4775 15.6332C11.2753 15.6332 11.0813 15.5523 10.9383 15.4081C10.7953 15.2639 10.7149 15.0684 10.7149 14.8646V3.81147ZM14.4967 4.19262C14.4967 3.98877 14.577 3.79326 14.7201 3.64911C14.8631 3.50497 15.0571 3.42398 15.2593 3.42398C15.4616 3.42398 15.6556 3.50497 15.7986 3.64911C15.9416 3.79326 16.022 3.98877 16.022 4.19262V14.3564C16.022 14.5603 15.9416 14.7558 15.7986 14.8999C15.6556 15.044 15.4616 15.125 15.2593 15.125C15.0571 15.125 14.8631 15.044 14.7201 14.8999C14.577 14.7558 14.4967 14.5603 14.4967 14.3564V4.19262ZM20.0621 6.34336e-05H2.86781C2.49316 -0.00244644 2.1217 0.0695479 1.77469 0.211924C1.42768 0.3543 1.11195 0.564263 0.845559 0.829788C0.579174 1.09532 0.36737 1.41118 0.222277 1.75933C0.0771834 2.10746 0.00164952 2.48102 0 2.85863V20.01C0.00164952 20.3876 0.0771834 20.7612 0.222277 21.1093C0.36737 21.4574 0.579174 21.7733 0.845559 22.0388C1.11195 22.3043 1.42768 22.5143 1.77469 22.6567C2.1217 22.7991 2.49316 22.871 2.86781 22.8685H20.0621C20.4362 22.871 20.8072 22.7993 21.1538 22.6573C21.5004 22.5153 21.8158 22.3059 22.0821 22.041C22.3484 21.7762 22.5604 21.4611 22.7058 21.1136C22.8514 20.7663 22.9275 20.3934 22.9299 20.0164V2.85863C22.9283 2.48156 22.853 2.10853 22.7082 1.7608C22.5636 1.41308 22.3524 1.09749 22.0866 0.832045C21.8209 0.566603 21.5059 0.356508 21.1596 0.213756C20.8133 0.0710042 20.4425 -0.00160867 20.0684 6.34336e-05" fill="#081D34"/>
</g>
<defs>
<clipPath id="clip0_636_1356">
<rect width="100" height="22.8686" fill="white"/>
</clipPath>
</defs>
</svg>
