<svg width="50" height="50" viewBox="0 0 50 50" fill="none" xmlns="http://www.w3.org/2000/svg">
<g clip-path="url(#clip0_7_27)">
<path d="M45.1775 30.6805C44.1124 30.6805 43.284 29.8521 43.1656 28.7869C42.4556 18.6094 36.8934 4.2603 26.568 4.2603C18.0473 4.2603 11.6272 10.1775 7.48516 21.923C7.13013 22.9881 5.9467 23.5798 4.88161 23.1065C3.81652 22.7514 3.2248 21.568 3.69818 20.6212C8.4319 7.10054 16.1538 0.236633 26.568 0.236633C40.2071 0.236633 46.4792 17.5443 47.1893 28.5502C47.3076 29.6154 46.4792 30.6805 45.2958 30.6805H45.1775Z" fill="#1D2D35"/>
<path opacity="0.4" d="M49.9114 34.5858L14.3492 49.2899L0.236816 15.1481L6.62733 12.5445L35.8877 0.562256L49.9114 34.5858Z" fill="#FFE000"/>
<path d="M48.2544 38.5207L10.5621 46.3313L3.10645 10.1775L9.37863 8.87573L40.7988 2.36685L48.2544 38.5207Z" fill="#FFE000"/>
<path d="M26.0946 38.1657C19.2307 38.1657 12.5739 35.2071 7.95851 30C7.3668 29.5266 7.24845 28.6982 7.48514 27.9881C8.78691 24.5562 12.2189 16.5976 16.5976 16.4792C18.8461 16.4792 20.5029 18.2544 21.8047 19.6745C22.1597 20.1479 22.7514 20.7396 23.2248 21.0946C24.2899 20.0295 26.3017 16.7159 27.8402 13.284C28.3135 12.2189 29.497 11.8639 30.5621 12.3372C31.6271 12.8106 31.9822 13.994 31.5088 15.0591C26.7751 25.355 24.2899 25.355 23.3431 25.355C21.4496 25.355 20.1479 23.9349 18.8461 22.5147C18.2544 21.923 17.0709 20.6212 16.5976 20.6212C15.5325 20.7396 13.284 24.4082 11.7455 28.3136C15.6508 32.2189 20.9763 34.3491 26.4496 34.2308C31.1834 34.2308 39.6153 33.4024 43.0473 28.3136C42.1005 18.136 36.5384 4.37864 26.4496 4.37864C25.3845 4.37864 24.4378 3.4319 24.4378 2.36681C24.4378 1.30172 25.3845 0.236633 26.568 0.236633C40.207 0.236633 46.4792 17.5443 47.1893 28.5502C47.1893 28.9053 47.0709 29.3786 46.9526 29.7337C43.7573 35.1775 36.5384 38.2544 26.568 38.2544C26.4496 38.1657 26.2129 38.1657 26.0946 38.1657Z" fill="#1D2D35"/>
</g>
<defs>
<clipPath id="clip0_7_27">
<rect width="50" height="49.4083" fill="white"/>
</clipPath>
</defs>
</svg>
