<svg width="100" height="35" viewBox="0 0 100 35" fill="none" xmlns="http://www.w3.org/2000/svg">
<g clip-path="url(#clip0_8_139)">
<path d="M81.3519 34.1061C81.2061 34.1061 81.088 33.9878 81.088 33.842V2.0442C81.088 1.91901 81.176 1.81106 81.2985 1.78571L86.8521 0.637497C87.0158 0.60363 87.1695 0.728719 87.1695 0.895987V33.842C87.1695 33.9878 87.0514 34.1061 86.9056 34.1061H81.3519Z" fill="#1C4396"/>
<path d="M11.5929 34.7787C9.37564 34.7787 7.39599 34.2403 5.65388 33.1633C3.9118 32.0864 2.53396 30.6135 1.52038 28.7446C0.506791 26.8759 0 24.7538 0 22.3781C0 20.0026 0.506791 17.8962 1.52038 16.0591C2.53396 14.1902 3.9118 12.7332 5.65388 11.688C7.39599 10.611 9.37564 10.0726 11.5929 10.0726C13.3666 10.0726 14.9187 10.4051 16.249 11.0703C17.3175 11.6046 18.2226 12.3125 18.9641 13.1941C19.1312 13.3927 19.4799 13.2798 19.4799 13.0203V1.47241C19.4799 1.34723 19.5677 1.23927 19.6903 1.21393L25.2439 0.0657119C25.4077 0.0318454 25.5613 0.156934 25.5613 0.324202V33.9446C25.5613 34.0904 25.443 34.2086 25.2974 34.2086H20.3619C20.2358 34.2086 20.1274 34.1194 20.1029 33.9957L19.5967 31.4283C19.5522 31.2022 19.2558 31.1349 19.1083 31.3119C18.3996 32.162 17.5097 32.9217 16.439 33.5909C15.2038 34.3828 13.5883 34.7787 11.5929 34.7787ZM12.8757 29.4574C14.8394 29.4574 16.439 28.8081 17.6743 27.5094C18.9413 26.1791 19.5748 24.4845 19.5748 22.4257C19.5748 20.3668 18.9413 18.6881 17.6743 17.3894C16.439 16.0591 14.8394 15.3939 12.8757 15.3939C10.9435 15.3939 9.34396 16.0432 8.07699 17.3419C6.81 18.6406 6.17652 20.3193 6.17652 22.3781C6.17652 24.437 6.81 26.1316 8.07699 27.4619C9.34396 28.7922 10.9435 29.4574 12.8757 29.4574Z" fill="#1C4396"/>
<path d="M40.3902 34.7823C38.0147 34.7823 35.9084 34.2755 34.0713 33.262C32.2342 32.2484 30.793 30.823 29.7476 28.9859C28.7024 27.1488 28.1798 25.0267 28.1798 22.6194C28.1798 20.1804 28.6866 18.0107 29.7001 16.1103C30.7455 14.2098 32.1708 12.7369 33.9762 11.6917C35.8133 10.6148 37.9672 10.0763 40.4378 10.0763C42.7501 10.0763 44.793 10.5831 46.5668 11.5967C48.3405 12.6102 49.7184 14.0039 50.7004 15.7777C51.7139 17.5197 52.2207 19.4678 52.2207 21.6216C52.2207 21.97 52.2049 22.3343 52.1731 22.7143C52.1731 23.0188 52.163 23.3335 52.1427 23.6584C52.1342 23.7959 52.0192 23.9022 51.8813 23.9022H34.4966C34.3436 23.9022 34.2223 24.032 34.2375 24.1842C34.4073 25.8874 35.033 27.2346 36.1143 28.2258C37.2862 29.271 38.6958 29.7936 40.3429 29.7936C41.5781 29.7936 42.6075 29.5243 43.4311 28.9859C44.2371 28.4487 44.846 27.7707 45.2582 26.952C45.3043 26.8603 45.3972 26.8004 45.5 26.8004H51.154C51.3305 26.8004 51.4573 26.9704 51.4015 27.1381C50.9495 28.4957 50.2407 29.7451 49.275 30.8864C48.2614 32.09 46.9944 33.0403 45.474 33.7371C43.9853 34.4339 42.2908 34.7823 40.3902 34.7823ZM40.4378 15.0175C38.9491 15.0175 37.6346 15.4451 36.4943 16.3003C35.4243 17.0732 34.7169 18.2364 34.372 19.7903C34.3362 19.9514 34.4611 20.1013 34.6262 20.1013H45.7636C45.9158 20.1013 46.0369 19.9729 46.0215 19.8216C45.8781 18.4001 45.3155 17.258 44.3337 16.3954C43.2885 15.4768 41.9898 15.0175 40.4378 15.0175Z" fill="#1C4396"/>
<path d="M66.8463 34.7823C64.4707 34.7823 62.3643 34.2755 60.5272 33.262C58.6901 32.2484 57.2489 30.823 56.2037 28.9859C55.1584 27.1488 54.6357 25.0267 54.6357 22.6194C54.6357 20.1804 55.1426 18.0107 56.1562 16.1103C57.2014 14.2098 58.6268 12.7369 60.4323 11.6917C62.2694 10.6148 64.4231 10.0763 66.8939 10.0763C69.206 10.0763 71.2491 10.5831 73.0228 11.5967C74.7966 12.6102 76.1744 14.0039 77.1563 15.7777C78.1699 17.5197 78.6768 19.4678 78.6768 21.6216C78.6768 21.97 78.6608 22.3343 78.6292 22.7143C78.6292 23.0188 78.6191 23.3335 78.5986 23.6584C78.5901 23.7959 78.4752 23.9022 78.3372 23.9022H60.9526C60.7997 23.9022 60.6784 24.032 60.6936 24.1842C60.8634 25.8874 61.4889 27.2346 62.5702 28.2258C63.7423 29.271 65.1517 29.7936 66.7988 29.7936C68.0342 29.7936 69.0636 29.5243 69.887 28.9859C70.693 28.4487 71.302 27.7707 71.7141 26.952C71.7604 26.8603 71.8533 26.8004 71.956 26.8004H77.6099C77.7866 26.8004 77.9133 26.9704 77.8575 27.1381C77.4056 28.4957 76.6966 29.7451 75.731 30.8864C74.7173 32.09 73.4504 33.0403 71.9301 33.7371C70.4414 34.4339 68.7468 34.7823 66.8463 34.7823ZM66.8939 15.0175C65.4052 15.0175 64.0907 15.4451 62.9504 16.3003C61.8802 17.0732 61.1728 18.2364 60.8281 19.7903C60.7923 19.9514 60.917 20.1013 61.0821 20.1013H72.2195C72.3717 20.1013 72.4928 19.9729 72.4776 19.8216C72.334 18.4001 71.7714 17.258 70.7898 16.3954C69.7444 15.4768 68.4459 15.0175 66.8939 15.0175Z" fill="#1C4396"/>
<path d="M95.1387 34.1129C97.3998 34.1129 99.233 32.2799 99.233 30.0185C99.233 27.7572 97.3998 25.9242 95.1387 25.9242C92.8774 25.9242 91.0443 27.7572 91.0443 30.0185C91.0443 32.2799 92.8774 34.1129 95.1387 34.1129Z" fill="#2C71F0"/>
</g>
<defs>
<clipPath id="clip0_8_139">
<rect width="100" height="34.7826" fill="white"/>
</clipPath>
</defs>
</svg>
