<svg width="50" height="29" viewBox="0 0 50 29" fill="none" xmlns="http://www.w3.org/2000/svg">
<path fill-rule="evenodd" clip-rule="evenodd" d="M11.9728 20.528L5.10309 13.6267C3.93576 12.454 2.04317 12.454 0.875486 13.6267C-0.291829 14.7994 -0.291829 16.7006 0.875486 17.8736L9.85904 26.8985C11.0264 28.0711 12.9194 28.0711 14.0866 26.8985L22.5422 18.4037L18.315 14.1567L11.9728 20.528Z" fill="#16B8A2"/>
<path fill-rule="evenodd" clip-rule="evenodd" d="M37.8669 7.25702L24.6569 20.5276L11.4454 7.25552C10.2777 6.08247 8.38508 6.08247 7.21777 7.25552C6.05046 8.42819 6.05046 10.3295 7.21777 11.5025L22.543 26.8981C23.7104 28.0709 25.603 28.0709 26.7706 26.8981L42.0945 11.504C43.2617 10.331 43.2617 8.4297 42.0945 7.25702C40.9267 6.08435 39.0341 6.08435 37.8669 7.25702Z" fill="#FFB41F"/>
<path fill-rule="evenodd" clip-rule="evenodd" d="M48.4361 17.8749L39.454 26.8981C38.2867 28.0709 36.3941 28.0709 35.2267 26.8981L13.5594 5.1313C12.392 3.95862 12.392 2.05735 13.5594 0.884669C14.727 -0.288379 16.6196 -0.288379 17.7868 0.884669L37.3402 20.5276L44.2085 13.6279C45.3761 12.4552 47.2687 12.4552 48.4361 13.6279C49.6034 14.801 49.6034 16.7022 48.4361 17.8749Z" fill="#F56358"/>
<path fill-rule="evenodd" clip-rule="evenodd" d="M35.7524 0.886219C34.5851 -0.286455 32.6926 -0.286455 31.5248 0.886219L18.3149 14.1568L22.5422 18.4037L35.7524 5.13321C36.9198 3.96016 36.9198 2.05889 35.7524 0.886219Z" fill="#16B8A2"/>
</svg>
