<svg width="50" height="50" viewBox="0 0 50 50" fill="none" xmlns="http://www.w3.org/2000/svg">
<g clip-path="url(#clip0_10_496)">
<path d="M25 50C38.8071 50 50 38.8071 50 25C50 11.1929 38.8071 0 25 0C11.1929 0 0 11.1929 0 25C0 38.8071 11.1929 50 25 50Z" fill="#E0F01F"/>
<path d="M39.51 36.3295V36.45L21.9627 36.4563V36.3295C24.4931 34.9006 26.2397 33.4448 27.8113 31.924H35.0165L39.51 36.3295ZM35.1623 13.4773L30.7144 9.11462H30.5852C30.5852 9.11462 30.6602 17.2451 23.1925 24.6397C15.8851 31.8769 7.29175 31.8933 7.29175 31.8933V32.0201L11.8229 36.4584C11.8229 36.4584 20.2912 36.542 27.7717 29.2047C35.2248 21.892 35.1623 13.4773 35.1623 13.4773Z" fill="black"/>
</g>
<defs>
<clipPath id="clip0_10_496">
<rect width="50" height="50" fill="white"/>
</clipPath>
</defs>
</svg>
