<svg width="50" height="35" viewBox="0 0 50 35" fill="none" xmlns="http://www.w3.org/2000/svg">
<g clip-path="url(#clip0_10_606)">
<path d="M44.0995 19.9003C43.6233 19.902 43.149 19.9608 42.6868 20.0755C41.8256 16.6891 40.0084 13.622 37.452 11.24C34.8956 8.85806 31.7079 7.2618 28.2692 6.64171C27.9547 6.58556 27.6717 6.54288 27.3505 6.50245C27.4044 4.78195 27.483 2.79417 30.0144 1.00629L29.6146 -0.00219727C29.6146 -0.00219727 24.6732 1.52963 24.1139 5.75002C23.8691 4.60227 21.5691 3.16478 20.4304 2.893L19.8643 3.80716C19.8643 3.80716 21.3737 4.56184 21.7421 6.64395C18.3036 7.26202 15.1154 8.85608 12.5579 11.236C10.0003 13.616 8.18127 16.6813 7.31773 20.0665C6.41536 19.8432 5.47302 19.836 4.56733 20.0455C3.66165 20.255 2.81819 20.6753 2.10554 21.2722C1.3929 21.8691 0.831184 22.6257 0.466079 23.4806C0.100974 24.3355 -0.0572155 25.2645 0.00437432 26.1921C0.0659641 27.1197 0.345594 28.0196 0.820526 28.8187C1.29546 29.6178 1.95228 30.2936 2.73759 30.791C3.5229 31.2885 4.41453 31.5935 5.33996 31.6814C6.26539 31.7694 7.19851 31.6376 8.06343 31.2969C8.5673 32.5546 9.21071 33.7518 9.98159 34.866L14.8848 31.562L14.8421 31.5081C13.5461 29.8415 12.7532 27.3888 12.6185 24.9473C12.4725 22.252 13.1283 19.5791 14.8488 18.0069C18.3954 14.9881 22.2609 16.365 24.6732 19.2579H25.3223C27.7413 16.365 31.6113 14.9904 35.1467 18.0069C36.8649 19.5791 37.523 22.2542 37.377 24.9473C37.2445 27.3888 36.4516 29.8415 35.1534 31.5081L35.1107 31.562L40.0139 34.866C40.7864 33.752 41.4313 32.5548 41.9366 31.2969C42.7451 31.6165 43.6142 31.7535 44.4818 31.6983C45.3494 31.6431 46.1941 31.397 46.9556 30.9776C47.7171 30.5581 48.3766 29.9758 48.887 29.272C49.3974 28.5682 49.7461 27.7604 49.9082 26.9063C50.0703 26.0522 50.0418 25.1728 49.8248 24.331C49.6077 23.4892 49.2075 22.7056 48.6526 22.0364C48.0977 21.3671 47.4019 20.8287 46.6148 20.4594C45.8278 20.0902 44.9689 19.8993 44.0995 19.9003ZM5.79714 27.537C5.33488 27.537 4.89155 27.3534 4.56468 27.0265C4.23781 26.6996 4.05418 26.2563 4.05418 25.794C4.05418 25.3318 4.23781 24.8884 4.56468 24.5616C4.89155 24.2347 5.33488 24.0511 5.79714 24.0511C6.14544 24.0524 6.48549 24.1572 6.77418 24.3521C6.78895 25.2673 6.85117 26.1812 6.96061 27.09C6.64109 27.383 6.22388 27.5463 5.7904 27.5482L5.79714 27.537ZM44.2051 27.537C43.7752 27.5359 43.3608 27.3759 43.0416 27.0878C43.1511 26.179 43.2133 25.2651 43.2281 24.3498C43.49 24.1721 43.7955 24.0693 44.1116 24.0523C44.4277 24.0352 44.7424 24.1048 45.022 24.2533C45.3015 24.4018 45.5352 24.6238 45.698 24.8953C45.8608 25.1668 45.9465 25.4775 45.9458 25.794C45.9479 26.0237 45.9045 26.2514 45.818 26.4642C45.7316 26.6769 45.6039 26.8704 45.4422 27.0335C45.2806 27.1966 45.0882 27.3261 44.8763 27.4144C44.6643 27.5028 44.437 27.5482 44.2074 27.5482L44.2051 27.537Z" fill="#00BF6F"/>
</g>
<defs>
<clipPath id="clip0_10_606">
<rect width="50" height="34.8749" fill="white"/>
</clipPath>
</defs>
</svg>
