<svg width="50" height="50" viewBox="0 0 50 50" fill="none" xmlns="http://www.w3.org/2000/svg">
<g clip-path="url(#clip0_9_187)">
<path d="M46.8369 47.8148C45.4738 47.8148 44.6314 46.7493 44.6314 45.4457C44.6314 44.0498 45.5957 43.0767 46.8369 43.0767C48.066 43.0767 49.0274 44.0498 49.0274 45.4457C49.0274 46.8445 48.066 47.8148 46.8369 47.8148ZM46.8369 42.8088C45.441 42.8088 44.2476 43.8593 44.2476 45.4457C44.2476 46.9457 45.325 48.0736 46.8369 48.0736C48.2148 48.0736 49.4143 47.029 49.4143 45.4457C49.4143 43.8593 48.2148 42.8088 46.8369 42.8088Z" fill="#072F54"/>
<path d="M46.2176 45.2286V44.2671H46.8664C47.1938 44.2671 47.5807 44.3179 47.5807 44.7167C47.5807 45.1898 47.2236 45.2286 46.816 45.2286H46.2176ZM48.06 44.779C48.06 44.1512 47.6731 43.8833 46.9231 43.8833H45.7414V46.9993H46.2564V45.666H46.7326L47.539 46.9993H48.1195L47.2445 45.6302C47.7176 45.5738 48.06 45.3445 48.06 44.779Z" fill="#072F54"/>
<path d="M29.0467 19.071L28.0467 16.2407L19.5645 4.90438L21.0883 4.52641L35.7133 17.1693L44.3205 14.708C45.3324 14.446 46.4812 14.3895 47.3562 14.3955C44.6507 8.56212 39.7014 3.77343 33.1657 1.44606C20.246 -3.15812 6.04064 3.59188 1.44541 16.5175C0.0227903 20.5145 -0.316494 24.6395 0.281721 28.5621L20.9008 21.3984L29.0467 19.071Z" fill="#072F54"/>
<path d="M48.2619 16.63C47.5059 17.1211 46.3957 17.7639 45.2945 18.1181L36.6695 20.5794L30.9136 39.0557L29.4195 39.5407L30.6338 25.4307L29.9552 22.4991L21.872 24.8057L0.508911 29.8355C2.19939 38.0586 8.02083 45.2193 16.5059 48.2431C29.4286 52.8474 43.6279 46.0943 48.2231 33.1776C50.2052 27.6093 50.0774 21.7997 48.2619 16.63Z" fill="#072F54"/>
<path d="M29.9548 22.5005L30.6364 25.4291L29.4191 39.5391L30.9131 39.0541L36.6691 20.5808L45.2941 18.1195C46.3953 17.7654 47.5055 17.1166 48.2614 16.6314C47.9964 15.8725 47.6929 15.1255 47.3567 14.3963C46.4817 14.3904 45.3329 14.4499 44.321 14.7058L35.7138 17.1731L21.0858 4.52429L19.565 4.90524L28.0441 16.2416L29.0472 19.0689L20.8983 21.4023L0.282227 28.56C0.347703 28.9886 0.42211 29.4141 0.508419 29.8367L21.8745 24.8069L29.9548 22.5005Z" fill="#FBC108"/>
</g>
<defs>
<clipPath id="clip0_9_187">
<rect width="50" height="50" fill="white"/>
</clipPath>
</defs>
</svg>
