<svg width="50" height="50" viewBox="0 0 50 50" fill="none" xmlns="http://www.w3.org/2000/svg">
<g clip-path="url(#clip0_12_206)">
<path d="M49.9961 25.1583C49.9961 32.019 50.2262 40.0087 45.1195 45.1327C40.0131 50.2564 32.0191 49.9958 25.1584 49.9958C18.2977 49.9958 10.3079 50.226 5.18413 45.1196C0.0602889 40.0131 0.320823 32.019 0.320823 25.1583C0.320823 18.2976 0.0950265 10.3079 5.20151 5.18401C10.3079 0.0601674 18.302 0.320701 25.1584 0.320701C32.0148 0.320701 40.0089 0.094905 45.1327 5.20138C50.2564 10.3079 49.9961 18.3019 49.9961 25.1583Z" fill="#12262B"/>
<path d="M27.9589 12.1748H12.0707C10.6654 12.1748 9.52612 13.314 9.52612 14.7194C9.52612 16.1247 10.6654 17.2639 12.0707 17.2639H27.9589C29.3642 17.2639 30.5035 16.1247 30.5035 14.7194C30.5035 13.314 29.3642 12.1748 27.9589 12.1748Z" fill="white"/>
<path d="M33.1609 22.6133H17.2728C15.8675 22.6133 14.7283 23.7526 14.7283 25.1579C14.7283 26.5632 15.8675 27.7024 17.2728 27.7024H33.1609C34.5664 27.7024 35.7055 26.5632 35.7055 25.1579C35.7055 23.7526 34.5664 22.6133 33.1609 22.6133Z" fill="white"/>
<path d="M27.959 33.0564H22.4747C21.0694 33.0564 19.9302 34.1958 19.9302 35.6009C19.9302 37.0064 21.0694 38.1455 22.4747 38.1455H27.959C29.3643 38.1455 30.5035 37.0064 30.5035 35.6009C30.5035 34.1958 29.3643 33.0564 27.959 33.0564Z" fill="white"/>
<path d="M40.7947 14.7194C40.7947 13.314 39.6552 12.1748 38.2501 12.1748C36.8447 12.1748 35.7056 13.314 35.7056 14.7194C35.7056 16.1247 36.8447 17.2639 38.2501 17.2639C39.6552 17.2639 40.7947 16.1247 40.7947 14.7194Z" fill="white"/>
</g>
<defs>
<clipPath id="clip0_12_206">
<rect width="50" height="50" fill="white"/>
</clipPath>
</defs>
</svg>
