<svg width="100" height="35" viewBox="0 0 100 35" fill="none" xmlns="http://www.w3.org/2000/svg">
<g clip-path="url(#clip0_10_467)">
<path d="M67.985 26.1697C67.1863 27.3164 66.0416 28.1773 64.7183 28.6262C63.395 29.0751 61.9627 29.0888 60.6312 28.6647C59.2997 28.2408 58.1389 27.4017 57.3189 26.2702C56.4988 25.1386 56.0626 23.7744 56.0741 22.3771C56.0854 20.9797 56.5441 19.6227 57.3826 18.5048C58.221 17.3871 59.3954 16.5671 60.7338 16.165C62.072 15.7629 63.5039 15.7998 64.8197 16.2705C66.1354 16.7411 67.2659 17.6206 68.0456 18.7803L72.8804 15.9258C71.4726 13.7048 69.3823 12.0004 66.9232 11.0687C64.4642 10.137 61.7694 10.0283 59.2432 10.7587C56.7171 11.4892 54.4962 13.0195 52.9139 15.1197C51.3316 17.22 50.4735 19.777 50.4683 22.4065C50.4632 25.0361 51.3112 27.5964 52.8851 29.7029C54.4591 31.8095 56.6739 33.3485 59.1973 34.0889C61.7204 34.8294 64.4157 34.7312 66.8783 33.8092C69.341 32.8873 71.438 31.1912 72.8547 28.9758L67.9865 26.1697H67.985ZM81.3062 0H75.6971V33.6455H81.3032V22.4303C81.3032 20.6952 81.9924 19.0311 83.2194 17.8041C84.4463 16.5771 86.1104 15.8879 87.8456 15.8879C89.5807 15.8879 91.2448 16.5771 92.4718 17.8041C93.6988 19.0311 94.388 20.6952 94.388 22.4303V33.6455H99.9956V21.3394C99.9947 19.1748 99.3588 17.0582 98.1667 15.2515C96.9744 13.4449 95.2783 12.0278 93.2886 11.1758C91.2988 10.3238 89.1027 10.0744 86.9726 10.4585C84.8423 10.8425 82.8716 11.8431 81.3047 13.3364V0H81.3062ZM42.0547 0H36.4471V26.1682C36.4468 27.7832 36.9116 29.3641 37.7857 30.722C38.66 32.08 39.9066 33.1574 41.3768 33.8259C42.8471 34.4942 44.4786 34.7252 46.0765 34.4912C47.6744 34.2571 49.1712 33.568 50.388 32.5061L47.6789 27.9091C47.4166 28.2406 47.0827 28.5083 46.7023 28.6923C46.3218 28.8762 45.9045 28.9715 45.4819 28.9712H44.8577C44.1144 28.9708 43.4016 28.6753 42.876 28.1498C42.3504 27.6242 42.055 26.9115 42.0547 26.1682V16.8227H47.6607V11.2152H42.0547V0ZM29.9092 0C29.083 0 28.2906 0.328203 27.7065 0.912406C27.1223 1.49661 26.7941 2.28895 26.7941 3.11515C26.7941 3.94135 27.1223 4.7337 27.7065 5.31789C28.2906 5.90211 29.083 6.2303 29.9092 6.2303C30.7354 6.2303 31.5277 5.90211 32.1119 5.31789C32.6962 4.7337 33.0244 3.94135 33.0244 3.11515C33.0244 2.28895 32.6962 1.49661 32.1119 0.912406C31.5277 0.328203 30.7354 0 29.9092 0ZM32.7122 33.6455V11.2152H27.1062V33.6455H32.7122Z" fill="black"/>
<path fill-rule="evenodd" clip-rule="evenodd" d="M0 33.6455H5.60606V27.103H10.747C12.5266 27.103 14.2888 26.7526 15.9329 26.0715C17.5771 25.3905 19.0709 24.3923 20.3294 23.1339C21.5877 21.8755 22.5859 20.3817 23.267 18.7374C23.948 17.0933 24.2985 15.3311 24.2985 13.5515C24.2985 11.7719 23.948 10.0097 23.267 8.36558C22.5859 6.72142 21.5877 5.22752 20.3294 3.96915C19.0709 2.71077 17.5771 1.71258 15.9329 1.03155C14.2888 0.35052 12.5266 -3.75024e-08 10.747 0H0V33.6455ZM5.60606 5.60606H10.747C12.8538 5.60606 14.8744 6.44302 16.3642 7.93279C17.8539 9.42256 18.6909 11.4431 18.6909 13.55C18.6909 15.6568 17.8539 17.6774 16.3642 19.1673C14.8744 20.657 12.8538 21.4939 10.747 21.4939H5.60758V5.60606H5.60606Z" fill="black"/>
</g>
<defs>
<clipPath id="clip0_10_467">
<rect width="100" height="34.8485" fill="white"/>
</clipPath>
</defs>
</svg>
