<svg width="50" height="42" viewBox="0 0 50 42" fill="none" xmlns="http://www.w3.org/2000/svg">
<g clip-path="url(#clip0_6_7912)">
<path d="M22.0465 0.520903L3.63909 8.13755C2.61546 8.56118 2.62607 10.0154 3.65612 10.4237L22.1403 17.7537C23.7644 18.3978 25.573 18.3978 27.1971 17.7537L45.6815 10.4234C46.7113 10.0154 46.7224 8.56146 45.6982 8.13783L27.2914 0.520624C25.6121 -0.174274 23.7256 -0.174274 22.0463 0.520624" fill="#FCB400"/>
<path d="M26.3087 21.7562V40.0679C26.3087 40.9386 27.187 41.5352 27.9965 41.2143L48.5935 33.2195C48.8233 33.1285 49.0203 32.9705 49.1592 32.766C49.298 32.5616 49.3722 32.3202 49.3721 32.0731V13.7616C49.3721 12.8907 48.4939 12.2943 47.6843 12.6152L27.0873 20.61C26.8577 20.7012 26.6606 20.8592 26.5217 21.0636C26.383 21.268 26.3087 21.5094 26.3087 21.7565" fill="#18BFFF"/>
<path d="M21.499 22.7014L15.3863 25.6529L14.7656 25.9529L1.86195 32.1357C1.04428 32.5303 0 31.9342 0 31.0256V13.8387C0 13.51 0.168558 13.2262 0.394605 13.0127C0.48734 12.9204 0.592547 12.8414 0.707163 12.7783C1.01526 12.5933 1.45507 12.5439 1.82902 12.6918L21.3963 20.4449C22.3909 20.8396 22.4691 22.2332 21.499 22.7018" fill="#F82B60"/>
<path d="M21.499 22.7014L15.3863 25.6529L0.394653 13.0125C0.487407 12.9201 0.592613 12.8414 0.707211 12.7783C1.0153 12.5933 1.45512 12.5439 1.82908 12.6918L21.3963 20.4449C22.391 20.8396 22.4691 22.2332 21.499 22.7018" fill="black" fill-opacity="0.25"/>
</g>
<defs>
<clipPath id="clip0_6_7912">
<rect width="50" height="41.8605" fill="white"/>
</clipPath>
</defs>
</svg>
