<svg width="50" height="36" viewBox="0 0 50 36" fill="none" xmlns="http://www.w3.org/2000/svg">
<g clip-path="url(#clip0_10_348)">
<path d="M48.6964 34.8903H40.051C39.7344 34.8903 39.4306 34.7646 39.2069 34.5406C38.9829 34.3166 38.8571 34.013 38.8571 33.6965V1.7857C38.8592 1.47014 38.9857 1.16818 39.2094 0.945526C39.4329 0.722873 39.7355 0.59759 40.051 0.596927H48.6939C49.01 0.596238 49.3135 0.721008 49.538 0.943891C49.7622 1.16675 49.889 1.4695 49.8903 1.7857V33.6965C49.8906 33.8533 49.86 34.0087 49.8 34.1536C49.7403 34.2988 49.6523 34.4304 49.5413 34.5413C49.4304 34.6523 49.2987 34.7403 49.1538 34.8C49.0087 34.86 48.8533 34.8906 48.6964 34.8903Z" fill="url(#paint0_linear_10_348)"/>
<path d="M8.62756 35.0101L0.905633 31.1224C0.622929 30.9803 0.408243 30.7316 0.308748 30.4311C0.209251 30.1308 0.233088 29.8033 0.375021 29.5204L14.7015 1.02035C14.8437 0.737645 15.0924 0.522951 15.3927 0.423461C15.6931 0.323971 16.0208 0.347798 16.3036 0.489737L24.0281 4.36984C24.3108 4.51203 24.5255 4.76063 24.625 5.06104C24.7245 5.36142 24.7006 5.68905 24.5587 5.97188L10.2296 34.4795C10.0874 34.7622 9.83881 34.977 9.5384 35.0765C9.23802 35.176 8.91039 35.152 8.62756 35.0101Z" fill="url(#paint1_linear_10_348)"/>
<path d="M31.4362 34.3674L37.5587 3.29348C37.6196 2.98407 37.5556 2.6631 37.3806 2.4007C37.2056 2.13831 36.9339 1.95578 36.625 1.89297L28.1531 0.181238C27.999 0.150396 27.8403 0.150192 27.6862 0.180677C27.5319 0.211161 27.3852 0.271721 27.2546 0.35889C27.1237 0.446084 27.0115 0.558178 26.924 0.688765C26.8365 0.819352 26.7758 0.965905 26.7449 1.12001L20.6224 32.1964C20.5616 32.5064 20.626 32.8276 20.8014 33.0901C20.9769 33.3526 21.2492 33.535 21.5587 33.597L30.0281 35.3061C30.1821 35.3378 30.3411 35.3385 30.4954 35.3084C30.65 35.2781 30.7969 35.2176 30.9278 35.1304C31.0587 35.0431 31.1712 34.9306 31.2584 34.7998C31.3457 34.6689 31.4061 34.522 31.4362 34.3674Z" fill="url(#paint2_linear_10_348)"/>
</g>
<defs>
<linearGradient id="paint0_linear_10_348" x1="28.3725" y1="23.6454" x2="51.6964" y2="15.0459" gradientUnits="userSpaceOnUse">
<stop offset="0.02" stop-color="#B02DE9"/>
<stop offset="0.8" stop-color="#6D00CC"/>
</linearGradient>
<linearGradient id="paint1_linear_10_348" x1="7.90052" y1="19.7219" x2="32.9745" y2="8.88004" gradientUnits="userSpaceOnUse">
<stop stop-color="#FF00FF"/>
<stop offset="0.18" stop-color="#E80DF9"/>
<stop offset="0.54" stop-color="#C024ED"/>
<stop offset="0.73" stop-color="#B02DE9"/>
</linearGradient>
<linearGradient id="paint2_linear_10_348" x1="2.05101" y1="27.7015" x2="53.449" y2="8.77817" gradientUnits="userSpaceOnUse">
<stop offset="0.02" stop-color="#FF00FF"/>
<stop offset="0.09" stop-color="#E80DF9"/>
<stop offset="0.23" stop-color="#C024ED"/>
<stop offset="0.3" stop-color="#B02DE9"/>
<stop offset="0.42" stop-color="#A42BE3"/>
<stop offset="0.63" stop-color="#8527D5"/>
<stop offset="0.85" stop-color="#6021C3"/>
</linearGradient>
<clipPath id="clip0_10_348">
<rect width="50" height="35.4592" fill="white"/>
</clipPath>
</defs>
</svg>
