<svg width="50" height="51" viewBox="0 0 50 51" fill="none" xmlns="http://www.w3.org/2000/svg">
<g clip-path="url(#clip0_8_155)">
<path d="M25.1796 0C11.5097 0 0 11.0825 0 24.7573V50.3932L25.1748 50.3689C38.8447 50.3689 49.932 38.8592 49.932 25.1893C49.932 11.5194 38.8349 0 25.1796 0Z" fill="black"/>
<path d="M25.4224 9.58262C20.0156 9.58582 15.0092 12.4334 12.243 17.079C9.47675 21.7246 9.35864 27.4829 11.9321 32.238L9.15539 41.17L19.1263 38.9176C24.836 41.49 31.536 40.3347 36.0544 35.9984C40.5727 31.6622 42.0026 25.0153 39.6671 19.2047C37.3316 13.394 31.6994 9.58568 25.4369 9.58262H25.4224Z" fill="#FFF9AE"/>
<path d="M37.4211 34.4243C33.0625 39.9226 25.5289 41.7629 19.1263 38.8932L9.15539 41.1748L19.3059 39.9758C26.035 43.9176 34.6506 42.1833 39.3304 35.9448C44.0101 29.7064 43.2644 20.9496 37.5971 15.5923C41.8522 21.1712 41.7797 28.9259 37.4211 34.4243Z" fill="#00AEEF"/>
<path d="M36.5627 31.5092C32.8022 37.4324 25.5022 40.0492 18.835 37.8641L9.15539 41.1748L19.1263 38.9175C26.2275 42.1252 34.6053 39.4995 38.6054 32.8124C42.6055 26.1254 40.9567 17.5019 34.7719 12.7621C39.5859 17.8663 40.3233 25.586 36.5627 31.5092Z" fill="#00A94F"/>
<path d="M12.8496 32.5775C10.0706 25.8789 12.3607 18.1493 18.3403 14.0457C24.3199 9.94209 32.3559 10.5851 37.6068 15.5872C32.7436 9.20515 23.7847 7.64733 17.0526 12.0132C10.3205 16.3791 8.08864 25.1943 11.9321 32.2377L9.15539 41.1698L12.8496 32.5775Z" fill="#F15D22"/>
<path d="M11.9321 32.2378C8.48388 25.8686 9.95869 17.9556 15.4698 13.2562C20.9809 8.55685 29.0275 8.35083 34.7719 12.762C29.2616 6.95986 20.2176 6.36607 13.9959 11.398C7.77427 16.43 6.46379 25.3981 10.9855 31.9999L9.16024 41.1747L11.9321 32.2378Z" fill="#D0232B"/>
</g>
<defs>
<clipPath id="clip0_8_155">
<rect width="50" height="50.4854" fill="white"/>
</clipPath>
</defs>
</svg>
