<svg width="50" height="44" viewBox="0 0 50 44" fill="none" xmlns="http://www.w3.org/2000/svg">
<g clip-path="url(#clip0_7_30)">
<path fill-rule="evenodd" clip-rule="evenodd" d="M40.2084 33.3296L44.2229 34.102C48.2084 34.8692 51.2502 30.5968 49.2207 27.0823L34.9744 2.40958C32.9449 -1.10499 27.7237 -0.607231 26.3953 3.22746L25.0568 7.09006C25.8244 7.64598 26.501 8.37951 27.0294 9.29486L39.2851 30.5196C39.8135 31.4347 40.1105 32.3873 40.2084 33.3296ZM37.7772 32.8619C37.6714 32.4613 37.5092 32.0627 37.2849 31.6745L25.0293 10.4495C24.8049 10.0609 24.5407 9.72092 24.2466 9.42918L21.6548 16.9102L26.3953 30.6716L37.7772 32.8619Z" fill="black"/>
<path d="M4.12436 40.9205C1.14476 40.4515 -0.643461 37.3547 0.440023 34.54L5.71172 20.8457C7.1425 17.1284 12.2437 16.7294 14.2355 20.1788L23.4609 36.1555C25.4526 39.6048 22.5562 43.8227 18.6213 43.2031L4.12436 40.9205Z" fill="black"/>
<path fill-rule="evenodd" clip-rule="evenodd" d="M26.3949 37.9169L32.5559 38.7378C36.4529 39.2567 39.2499 35.0783 37.2844 31.674L25.0285 10.4489C23.0629 7.04492 18.0451 7.37759 16.5464 11.0114L14.1768 16.7567C14.9789 17.3192 15.6862 18.0732 16.2352 19.0236L25.4606 35.0003C26.0094 35.9511 26.3086 36.9409 26.3949 37.9169ZM24.0133 37.5997C23.9138 37.1133 23.7327 36.6269 23.4602 36.1549L14.235 20.1783C13.9626 19.7066 13.6321 19.3067 13.2606 18.9777L8.88638 29.5832C7.70119 32.4571 9.55886 35.674 12.6403 36.0846L24.0133 37.5997Z" fill="black"/>
</g>
<defs>
<clipPath id="clip0_7_30">
<rect width="50" height="43.2976" fill="white"/>
</clipPath>
</defs>
</svg>
