<svg width="45" height="50" viewBox="0 0 45 50" fill="none" xmlns="http://www.w3.org/2000/svg">
<g clip-path="url(#clip0_10_309)">
<path d="M12.2612 46.8132C13.1866 47.7087 12.5299 49.2535 11.2164 49.2535H2.94776C2.17712 49.2634 1.43398 48.9673 0.881373 48.4301C0.32876 47.8929 0.0117925 47.1584 0 46.3878V38.3878C0 37.1042 1.58955 36.4699 2.52239 37.3729L12.2612 46.8132Z" fill="#0A1551"/>
<path d="M25.1642 47.4329C24.5843 46.8572 24.1241 46.1724 23.81 45.418C23.4959 44.6636 23.3342 43.8546 23.3342 43.0374C23.3342 42.2202 23.4959 41.4111 23.81 40.6568C24.1241 39.9024 24.5843 39.2176 25.1642 38.6419L33.9851 29.8807C35.162 28.7131 36.7527 28.058 38.4104 28.058C40.0683 28.058 41.6589 28.7131 42.8358 29.8807C43.4157 30.4564 43.8759 31.1412 44.19 31.8956C44.5041 32.6499 44.6657 33.459 44.6657 34.2762C44.6657 35.0934 44.5041 35.9024 44.19 36.6568C43.8759 37.4112 43.4157 38.096 42.8358 38.6717L34.0149 47.4329C32.838 48.6004 31.2474 49.2556 29.5895 49.2556C27.9318 49.2556 26.3411 48.6004 25.1642 47.4329Z" fill="#FFB629"/>
<path d="M1.86569 25.4104C1.28581 24.8347 0.825586 24.1499 0.511519 23.3956C0.197456 22.6412 0.0357666 21.8321 0.0357666 21.0149C0.0357666 20.1978 0.197456 19.3887 0.511519 18.6343C0.825586 17.8799 1.28581 17.1951 1.86569 16.6194L16.709 1.86566C17.8859 0.698113 19.4765 0.0429688 21.1344 0.0429688C22.7921 0.0429688 24.3828 0.698113 25.5598 1.86566C26.1396 2.4414 26.5998 3.12619 26.9139 3.88058C27.228 4.63496 27.3897 5.44404 27.3897 6.26119C27.3897 7.07834 27.228 7.88743 26.9139 8.64184C26.5998 9.39616 26.1396 10.0809 25.5598 10.6567L10.709 25.4104C9.53237 26.5757 7.94334 27.2294 6.28733 27.2294C4.63135 27.2294 3.0423 26.5757 1.86569 25.4104Z" fill="#0099FF"/>
<path d="M14 35.9328C13.42 35.3571 12.9598 34.6723 12.6458 33.9179C12.3317 33.1635 12.17 32.3544 12.17 31.5373C12.17 30.7201 12.3317 29.911 12.6458 29.1566C12.9598 28.4023 13.42 27.7175 14 27.1418L34.0522 7.21638C35.2291 6.04882 36.8197 5.39368 38.4776 5.39368C40.1353 5.39368 41.726 6.04882 42.903 7.21638C43.4828 7.79208 43.943 8.47693 44.2571 9.23126C44.5712 9.98566 44.7329 10.7948 44.7329 11.6119C44.7329 12.429 44.5712 13.2381 44.2571 13.9925C43.943 14.7469 43.4828 15.4317 42.903 16.0075L22.8507 35.9328C21.6738 37.1004 20.0831 37.7555 18.4253 37.7555C16.7675 37.7555 15.1768 37.1004 14 35.9328Z" fill="#FF6100"/>
</g>
<defs>
<clipPath id="clip0_10_309">
<rect width="44.7761" height="50" fill="white"/>
</clipPath>
</defs>
</svg>
