<svg width="47" height="50" viewBox="0 0 47 50" fill="none" xmlns="http://www.w3.org/2000/svg">
<g clip-path="url(#clip0_7_65)">
<path d="M28.4414 13.0424C23.9651 13.0424 19.5386 14.9626 16.172 18.7531V0.099762H9.48877V31.5087C9.48877 41.7082 17.7556 49.9751 27.9551 49.9751C38.1546 49.9751 46.4214 41.7082 46.4214 31.5087C46.4214 21.3092 38.6284 13.0424 28.4414 13.0424ZM27.9551 42.8554C21.6833 42.8554 16.6085 37.7681 16.6085 31.5087C16.6085 25.2494 21.6957 20.1621 27.9551 20.1621C34.2269 20.1621 39.3017 25.2494 39.3017 31.5087C39.3017 37.7681 34.2269 42.8554 27.9551 42.8554Z" fill="black"/>
<path d="M4.63842 49.9626C7.15882 49.9626 9.20201 47.9195 9.20201 45.399C9.20201 42.8786 7.15882 40.8354 4.63842 40.8354C2.11802 40.8354 0.0748291 42.8786 0.0748291 45.399C0.0748291 47.9195 2.11802 49.9626 4.63842 49.9626Z" fill="#0000FF"/>
</g>
<defs>
<clipPath id="clip0_7_65">
<rect width="46.5087" height="50" fill="white"/>
</clipPath>
</defs>
</svg>
