<svg width="50" height="66" viewBox="0 0 50 66" fill="none" xmlns="http://www.w3.org/2000/svg">
<g clip-path="url(#clip0_10_754)">
<path d="M1.27362 31.6928C0.205331 33.4031 -0.242489 38.7823 0.129795 42.3487C0.259285 43.5249 0.475102 44.5069 0.782641 45.095C1.20888 45.9043 1.92647 46.3899 2.74118 46.4169C3.26453 46.4438 3.59365 46.3521 13.4403 43.185C13.4403 43.185 17.816 41.7876 17.8376 41.7768C18.9274 41.4962 19.6666 40.4927 19.7367 39.214C19.8069 37.8975 19.1325 36.7375 18.0102 36.322C18.0102 36.322 14.924 35.0649 14.9186 35.0649C4.33283 30.7 3.85803 30.5274 3.32388 30.522C2.50378 30.495 1.78079 30.905 1.27362 31.6928ZM24.9487 64.2218C25.1214 63.7254 25.143 63.3855 25.1699 53.037C25.1699 53.037 25.1915 48.4671 25.1969 48.4186C25.2671 47.2963 24.5441 46.2766 23.3571 45.818C22.1323 45.3486 20.8158 45.6399 20.0767 46.5571C20.0767 46.5571 17.9185 49.12 17.9077 49.12C10.4944 57.8282 10.1815 58.2328 10.0034 58.7454C9.89011 59.0475 9.85234 59.3713 9.88471 59.695C9.92788 60.159 10.1383 60.6122 10.4836 61.0385C12.2047 63.0833 20.4489 66.1155 23.0819 65.6623C24.0045 65.5059 24.6682 64.9933 24.9487 64.2218ZM41.6799 60.623C44.1672 59.6302 49.5896 52.7349 49.9727 50.075C50.1076 49.1523 49.8162 48.3538 49.1796 47.8467C48.7641 47.5337 48.4458 47.4096 38.5991 44.1778C38.5991 44.1778 34.2828 42.7534 34.2234 42.7264C33.1767 42.3217 31.9843 42.6994 31.1858 43.6868C30.3495 44.7011 30.2254 46.0446 30.8945 47.0535L32.6318 49.8807C38.475 59.3713 38.9229 60.0403 39.3437 60.3694C39.9911 60.882 40.8167 60.9683 41.6799 60.623ZM36.592 36.1925C47.7767 33.484 48.2138 33.3384 48.6508 33.047C49.3306 32.5884 49.6705 31.8277 49.6112 30.8996C49.6112 30.8727 49.6166 30.8403 49.6112 30.8079C49.3252 28.0563 44.5125 20.9127 42.1385 19.7527C41.2968 19.348 40.4552 19.375 39.7591 19.8444C39.3275 20.125 39.0092 20.5512 33.0203 28.7469C33.0203 28.7469 30.3172 32.4319 30.2848 32.4697C29.5726 33.3384 29.5618 34.5793 30.2578 35.6476C30.9808 36.7537 32.2002 37.2878 33.317 36.9803C33.317 36.9803 33.2739 37.0612 33.2631 37.072C33.8134 36.8616 34.7954 36.6188 36.592 36.1925ZM25.3642 26.9556C25.1699 22.5206 23.8373 2.77871 23.6808 1.86689C23.4542 1.03599 22.8067 0.447891 21.8787 0.210492C19.0192 -0.496308 8.10422 2.5629 6.08094 4.64553C5.4281 5.32535 5.1907 6.15624 5.38493 6.89542C5.70326 7.54826 19.2296 28.8278 19.2296 28.8278C21.2259 32.0704 22.8607 31.5633 23.3948 31.396C23.9236 31.2396 25.5476 30.7324 25.3642 26.9556Z" fill="#FF1919"/>
</g>
<defs>
<clipPath id="clip0_10_754">
<rect width="50" height="65.8241" fill="white"/>
</clipPath>
</defs>
</svg>
