<svg width="50" height="32" viewBox="0 0 50 32" fill="none" xmlns="http://www.w3.org/2000/svg">
<g clip-path="url(#clip0_12_153)">
<path d="M38.0812 18.9995C36.6687 18.9209 35.2956 18.5043 34.0775 17.7847C32.8594 17.0651 31.8318 16.0636 31.0812 14.8644C31.9867 7.64819 34.6218 5.40495 38.1083 5.40495C41.5948 5.40495 44.2434 8.10765 44.2434 12.1617C44.2434 16.2158 41.5407 18.9185 38.1083 18.9185L38.0812 18.9995ZM38.1083 0.891428C35.6477 0.791724 33.2306 1.55996 31.2791 3.06184C29.3277 4.5637 27.9661 6.70368 27.4326 9.10765C26.2758 6.6841 25.4007 4.13593 24.8245 1.51306H16.2164V12.1887C16.2164 16.0671 14.4596 18.9455 11.0137 18.9455C7.5677 18.9455 5.60825 16.0806 5.60825 12.1887V1.51306H0.662305V12.1887C0.550055 15.1471 1.56973 18.037 3.51365 20.2698C4.46249 21.3029 5.62156 22.1209 6.91289 22.6686C8.20422 23.2164 9.59789 23.4813 11.0001 23.4455C16.9596 23.4455 21.1353 18.8644 21.1353 12.3104V5.09414C22.1473 8.97725 23.8204 12.6571 26.0812 15.9725L23.4326 31.0806H28.4596L30.2029 20.3779C30.7799 20.8748 31.3944 21.3266 32.0407 21.7293C33.72 22.7899 35.6503 23.3867 37.6353 23.459H38.0948C39.5712 23.4744 41.0357 23.1908 42.3998 22.6254C43.764 22.0599 44.9995 21.2244 46.0322 20.1689C47.0649 19.1135 47.8734 17.8599 48.4091 16.4839C48.9446 15.1078 49.1962 13.6375 49.1488 12.1617C49.1833 10.6912 48.9218 9.22888 48.3798 7.8615C47.8379 6.49412 47.0265 5.24966 45.9941 4.20208C44.9617 3.15449 43.7291 2.32516 42.3698 1.76339C41.0104 1.20163 39.5521 0.918885 38.0812 0.931969" fill="#149E00"/>
</g>
<defs>
<clipPath id="clip0_12_153">
<rect width="50" height="31.0811" fill="white"/>
</clipPath>
</defs>
</svg>
