<svg width="54" height="54" viewBox="0 0 54 54" fill="none" xmlns="http://www.w3.org/2000/svg">
<g filter="url(#filter0_f_12_255)">
<path d="M38.0189 51.0828H15.5788L14.6628 51.0756C10.8737 51.0139 9.3666 50.5523 7.84803 49.7368C6.21267 48.8586 4.92922 47.5699 4.05461 45.9278L3.87347 45.575C3.14497 44.0973 2.74566 42.4665 2.71602 38.6354L2.71423 15.6322C2.71423 11.1403 3.17999 9.51142 4.05461 7.86928C4.92922 6.22715 6.21267 4.93838 7.84803 4.06015L8.19931 3.87827C9.67082 3.14676 11.2949 2.74578 15.1104 2.71602L38.0189 2.71423C42.4921 2.71423 44.1143 3.18193 45.7496 4.06015C47.385 4.93838 48.6685 6.22715 49.543 7.86928L49.7241 8.22201C50.4527 9.69962 50.852 11.3304 50.8816 15.1616L50.8835 38.1649L50.8764 39.0847C50.8148 42.8895 50.3552 44.4029 49.543 45.9278C48.6685 47.5699 47.385 48.8586 45.7496 49.7368L45.3983 49.9188C43.868 50.6796 42.1725 51.0828 38.0189 51.0828Z" fill="#C4D3E0" fill-opacity="0.2"/>
</g>
<path d="M50.8829 26.8986V38.165C50.8829 42.6568 50.417 44.2856 49.5425 45.9277C48.6679 47.57 47.3845 48.8587 45.749 49.7369C44.1137 50.6151 42.4915 51.0828 38.0183 51.0828H26.7983V26.8986H50.8829Z" fill="url(#paint0_linear_12_255)"/>
<path d="M26.7983 2.71423H38.0183C42.4915 2.71423 44.1137 3.18193 45.749 4.06015C47.3845 4.93838 48.6679 6.22713 49.5425 7.86928C50.417 9.51142 50.8829 11.1403 50.8829 15.632V26.8985H26.7983V2.71423Z" fill="url(#paint1_linear_12_255)"/>
<path d="M15.5788 2.71423H26.7988V51.0828H15.5788C11.1055 51.0828 9.48341 50.615 7.84803 49.7368C6.21267 48.8586 4.92922 47.5699 4.05461 45.9278C3.17999 44.2855 2.71423 42.6567 2.71423 38.1649V15.6322C2.71423 11.1403 3.17999 9.51142 4.05461 7.86928C4.92922 6.22715 6.21267 4.93838 7.84803 4.06015C9.48341 3.18193 11.1055 2.71423 15.5788 2.71423Z" fill="url(#paint2_linear_12_255)"/>
<defs>
<filter id="filter0_f_12_255" x="-6.67572e-06" y="-6.67572e-06" width="53.5977" height="53.7971" filterUnits="userSpaceOnUse" color-interpolation-filters="sRGB">
<feFlood flood-opacity="0" result="BackgroundImageFix"/>
<feBlend mode="normal" in="SourceGraphic" in2="BackgroundImageFix" result="shape"/>
<feGaussianBlur stdDeviation="1.35712" result="effect1_foregroundBlur_12_255"/>
</filter>
<linearGradient id="paint0_linear_12_255" x1="38.8406" y1="26.8986" x2="50.9625" y2="51.0427" gradientUnits="userSpaceOnUse">
<stop stop-color="#DEF2FE"/>
<stop offset="1" stop-color="#DBF1FE"/>
</linearGradient>
<linearGradient id="paint1_linear_12_255" x1="26.7983" y1="2.71423" x2="38.9204" y2="26.8584" gradientUnits="userSpaceOnUse">
<stop stop-color="#57BCFD"/>
<stop offset="1" stop-color="#51B5FD"/>
</linearGradient>
<linearGradient id="paint2_linear_12_255" x1="11.746" y1="2.71423" x2="32.3534" y2="43.7593" gradientUnits="userSpaceOnUse">
<stop stop-color="#1CA7FD"/>
<stop offset="1" stop-color="#148CFC"/>
</linearGradient>
</defs>
</svg>
