<svg width="50" height="31" viewBox="0 0 50 31" fill="none" xmlns="http://www.w3.org/2000/svg">
<g clip-path="url(#clip0_10_665)">
<path fill-rule="evenodd" clip-rule="evenodd" d="M50 23.0438C50 18.8019 46.5613 15.363 42.3193 15.363C38.0774 15.363 34.6385 18.8019 34.6385 23.0438C34.6385 27.2858 38.0774 30.7245 42.3193 30.7245C46.5613 30.7245 50 27.2858 50 23.0438Z" fill="#00C0FF"/>
<path fill-rule="evenodd" clip-rule="evenodd" d="M27.2486 30.73H42.3101V16.8086H27.2486V30.73Z" fill="#00C0FF"/>
<path fill-rule="evenodd" clip-rule="evenodd" d="M42.3101 15.3685C42.3101 6.88467 35.4326 0.00708008 26.9486 0.00708008C18.4647 0.00708008 11.587 6.88467 11.587 15.3685C11.587 23.8525 18.4647 30.7301 26.9486 30.7301C35.4326 30.7301 42.3101 23.8525 42.3101 15.3685Z" fill="#8000FF"/>
<path fill-rule="evenodd" clip-rule="evenodd" d="M27.2234 30.6929L14.0376 30.3438C13.6465 30.3749 13.252 30.3906 12.8546 30.3905C12.2085 30.3903 11.555 30.3483 10.8972 30.262C10.8972 30.262 10.8971 30.262 10.897 30.262H10.8964C10.8824 30.2602 10.8683 30.2584 10.8543 30.2565C2.65884 29.1597 9.03015 23.9289 10.1268 15.7334C11.2235 7.53801 9.32179 14.9946 13.5011 7.86005C16.0258 3.55023 19.3843 1.94945 19.4148 1.96223C25.1867 4.37783 28.542 10.819 27.6846 17.3608H27.6849C27.6849 17.3608 26.502 26.1559 26.3235 27.5437C26.2329 28.2495 26.4391 29.1464 26.5486 29.4558C26.9541 30.6022 27.2234 30.6929 27.2234 30.6929Z" fill="#6000C0"/>
<path fill-rule="evenodd" clip-rule="evenodd" d="M11.527 30.7301C5.16407 30.7301 0.00597191 25.5718 0.00597191 19.2088C0.00597191 12.846 5.16407 7.68774 11.527 7.68774C17.8791 7.68774 23.0304 12.8283 23.048 19.1763H23.0482V19.2088V21.4747C23.0482 24.9714 24.4792 28.3157 27.0086 30.7301H23.0482H11.5597V30.7299C11.5488 30.7299 11.5379 30.7301 11.527 30.7301Z" fill="#FF0060"/>
<path fill-rule="evenodd" clip-rule="evenodd" d="M11.5597 30.7301H23.0482V19.1763H11.5597V30.7301Z" fill="#FF0060"/>
</g>
<defs>
<clipPath id="clip0_10_665">
<rect width="50" height="30.7339" fill="white"/>
</clipPath>
</defs>
</svg>
