<svg width="100" height="35" viewBox="0 0 100 35" fill="none" xmlns="http://www.w3.org/2000/svg">
<g clip-path="url(#clip0_8_118)">
<path d="M0 20.9755C0 29.227 5.71166 34.3558 12.9387 34.3558C15.4785 34.3558 18.0184 33.7423 19.8712 32.3558V25.908C18.1923 27.407 16.0176 28.231 13.7669 28.2209C10.0123 28.2209 7.0184 25.5337 7.0184 20.9939C7.0184 16.454 10 13.816 13.7669 13.816C16.0293 13.7727 18.2231 14.5932 19.9018 16.1104V9.65031C18.0613 8.23313 15.5092 7.69325 12.9693 7.69325C5.71166 7.69325 0 12.8221 0 20.9755Z" fill="#101010"/>
<path d="M34.5951 7.69325C27.2331 7.69325 22.092 13.1656 22.092 20.9755C22.092 28.7853 27.2209 34.3558 34.5951 34.3558C41.9693 34.3558 47.1411 28.8344 47.1411 20.9755C47.1411 13.1166 42.0184 7.69325 34.5951 7.69325ZM34.5951 28.3497C31.0798 28.3497 29.1227 25.2822 29.1227 20.9877C29.1227 16.6933 31.0798 13.6626 34.5951 13.6626C38.1104 13.6626 40.0614 16.7301 40.0614 20.9877C40.0614 25.2454 38.1595 28.3497 34.5951 28.3497Z" fill="#101010"/>
<path d="M67.2822 10.3804C66.4448 9.52031 65.4417 8.83877 64.3331 8.37693C63.2251 7.91509 62.035 7.68251 60.8344 7.69325C53.411 7.69325 49.2147 13.6994 49.2147 20.9755C49.2147 28.3374 53.411 34.3558 60.8344 34.3558C62.0331 34.3555 63.2202 34.1179 64.327 33.6567C65.4337 33.1955 66.438 32.5199 67.2822 31.6687V33.773H74.362V0H67.2822V10.3804ZM67.2822 25.227C66.8233 26.112 66.1294 26.8534 65.2761 27.3696C64.4233 27.8859 63.4448 28.1571 62.4478 28.1534C58.589 28.1534 56.3129 25.0859 56.3129 20.9755C56.3129 16.865 58.6074 13.8466 62.4478 13.8466C63.4503 13.8488 64.4325 14.1286 65.2859 14.6548C66.1393 15.1811 66.8301 15.9334 67.2822 16.8282V25.227Z" fill="#101010"/>
<path d="M88.5276 7.69325C85.1104 7.69325 81.8404 8.62577 79.9815 9.79755V15.9325C82.0546 14.5666 84.4809 13.8353 86.9631 13.8282C90.5766 13.8282 92.6809 15.3926 92.6809 17.8834V19.3006C91.6503 18.5644 89.1595 17.7853 86.9631 17.7853C81.3496 17.7853 77.1042 21.1043 77.1042 25.9877C77.1042 31.2638 81.3496 34.2393 86.5276 34.2393C89.3067 34.2393 91.8466 33.2638 92.6625 32.4356V33.8037H99.4969V17.4601C99.5153 11.2577 95.5092 7.69325 88.5276 7.69325ZM92.6809 26.8344C92.0674 28.2025 90.1901 29.0368 88.184 29.0368C85.9386 29.0368 83.6441 28.1043 83.6441 25.908C83.6441 23.7117 85.9386 22.7853 88.184 22.7853C90.1901 22.7853 92.0429 23.6135 92.6809 24.9816V26.8344Z" fill="#101010"/>
</g>
<defs>
<clipPath id="clip0_8_118">
<rect width="100" height="34.3558" fill="white"/>
</clipPath>
</defs>
</svg>
