<svg width="50" height="52" viewBox="0 0 50 52" fill="none" xmlns="http://www.w3.org/2000/svg">
<g clip-path="url(#clip0_7_97)">
<path d="M34.2575 33.1701C32.6406 34.605 30.6214 36.3905 26.9601 36.3905H24.7708C22.1214 36.3905 19.7116 35.4275 17.9868 33.682C16.3019 31.9763 15.3743 29.642 15.3743 27.108V24.1124C15.3743 21.5784 16.3019 19.2441 17.9868 17.5385C19.7116 15.7929 22.1214 14.8314 24.7708 14.8314H26.9601C30.6258 14.8314 32.6406 16.6154 34.2575 18.0503C35.9365 19.5296 37.3847 20.8225 41.2471 20.8225C41.8362 20.8223 42.4243 20.7753 43.006 20.682L42.9927 20.6479C42.7613 20.0734 42.49 19.5158 42.1806 18.9793L39.5992 14.5074C38.4351 12.4915 36.7609 10.8175 34.7449 9.65363C32.7288 8.48979 30.4419 7.87712 28.114 7.87723H22.9498C20.6218 7.87712 18.335 8.48979 16.3189 9.65363C14.3029 10.8175 12.6286 12.4915 11.4646 14.5074L8.88322 18.9793C7.71954 20.9954 7.10693 23.2824 7.10693 25.6102C7.10693 27.938 7.71954 30.225 8.88322 32.2411L11.4646 36.713C12.6286 38.729 14.3029 40.403 16.3189 41.5669C18.335 42.7306 20.6218 43.3434 22.9498 43.3432H28.114C30.4419 43.3434 32.7288 42.7306 34.7449 41.5669C36.7609 40.403 38.4351 38.729 39.5992 36.713L42.1806 32.2485C42.49 31.712 42.7613 31.1544 42.9927 30.5799L43.006 30.5473C42.4246 30.4507 41.8365 30.4013 41.2471 30.3994C37.3847 30.3994 35.9365 31.6849 34.2575 33.1716" fill="#006BFF"/>
<path d="M26.9602 17.5459H24.7708C20.7383 17.5459 18.0889 20.426 18.0889 24.1124V27.108C18.0889 30.7944 20.7383 33.6746 24.7708 33.6746H26.9602C32.8359 33.6746 32.3744 27.6834 41.2472 27.6834C42.0878 27.6824 42.9267 27.7598 43.7531 27.9142C44.0223 26.39 44.0223 24.8303 43.7531 23.3062C42.9266 23.4599 42.0878 23.5371 41.2472 23.537C32.3714 23.537 32.8359 17.5459 26.9602 17.5459Z" fill="#006BFF"/>
<path d="M48.8507 30.1035C47.3397 28.9969 45.5971 28.2478 43.7545 27.9127C43.7545 27.929 43.7545 27.9423 43.7545 27.9571C43.5959 28.8404 43.348 29.7052 43.0149 30.5385C44.5371 30.7743 45.9813 31.3689 47.2279 32.2737C47.2279 32.2855 47.2205 32.3003 47.2161 32.3136C45.6115 37.5092 42.1967 41.9568 37.5917 44.8487C32.9868 47.7405 27.4973 48.8848 22.1205 48.0734C16.7437 47.262 11.8363 44.549 8.2897 40.4271C4.74311 36.3052 2.79267 31.0479 2.79267 25.6102C2.79267 20.1725 4.74311 14.9152 8.2897 10.7933C11.8363 6.67144 16.7437 3.95841 22.1205 3.14705C27.4973 2.3357 32.9868 3.47987 37.5917 6.37172C42.1967 9.26359 45.6115 13.7112 47.2161 18.9068C47.2161 18.9201 47.2235 18.9349 47.2279 18.9467C45.9814 19.8515 44.5371 20.4459 43.0149 20.6805C43.3477 21.5148 43.5955 22.3806 43.7545 23.2648C43.7536 23.2785 43.7536 23.2924 43.7545 23.3062C45.5971 22.9717 47.3396 22.2231 48.8507 21.1169C50.3033 20.0414 50.0223 18.8269 49.8019 18.108C48.0059 12.2827 44.1795 7.29505 39.0183 4.05137C33.8572 0.807662 27.7035 -0.476813 21.6757 0.431341C15.6479 1.33949 10.1458 4.38001 6.16942 9.00038C2.193 13.6207 0.00610352 19.5143 0.00610352 25.6102C0.00610352 31.7061 2.193 37.5997 6.16942 42.22C10.1458 46.8404 15.6479 49.8809 21.6757 50.789C27.7035 51.6972 33.8572 50.4127 39.0183 47.1691C44.1795 43.9253 48.0059 38.9377 49.8019 33.1124C50.0223 32.3935 50.3033 31.179 48.8507 30.1035Z" fill="#006BFF"/>
<path d="M43.0059 20.6805C42.4246 20.7771 41.8364 20.8265 41.247 20.8284C37.3846 20.8284 35.9364 19.5429 34.2589 18.0562C32.6405 16.6213 30.6257 14.8358 26.9601 14.8358H24.7707C22.1198 14.8358 19.7115 15.7988 17.9867 17.5444C16.3018 19.25 15.3743 21.5843 15.3743 24.1183V27.1139C15.3743 29.6479 16.3018 31.9822 17.9867 33.6879C19.7115 35.4334 22.1198 36.395 24.7707 36.395H26.9601C30.6257 36.395 32.6405 34.6109 34.2589 33.176C35.9364 31.6967 37.3846 30.4038 41.247 30.4038C41.8361 30.404 42.4243 30.451 43.0059 30.5444C43.3398 29.7114 43.5876 28.8464 43.7456 27.963C43.7465 27.9482 43.7465 27.9334 43.7456 27.9186C42.9191 27.7654 42.0802 27.6886 41.2397 27.6893C32.3639 27.6893 32.8284 33.6819 26.9527 33.6819H24.7633C20.7308 33.6819 18.0814 30.8003 18.0814 27.1139V24.1124C18.0814 20.426 20.7308 17.5458 24.7633 17.5458H26.9527C32.8284 17.5458 32.3669 23.5355 41.2397 23.5355C42.0803 23.537 42.9192 23.4602 43.7456 23.3062C43.7456 23.2929 43.7456 23.2796 43.7456 23.2648C43.5865 22.3806 43.3388 21.5148 43.0059 20.6805Z" fill="#0AE8F0"/>
<path d="M43.0059 20.6805C42.4246 20.7771 41.8364 20.8265 41.247 20.8284C37.3846 20.8284 35.9364 19.5429 34.2589 18.0562C32.6405 16.6213 30.6257 14.8358 26.9601 14.8358H24.7707C22.1198 14.8358 19.7115 15.7988 17.9867 17.5444C16.3018 19.25 15.3743 21.5843 15.3743 24.1183V27.1139C15.3743 29.6479 16.3018 31.9822 17.9867 33.6879C19.7115 35.4334 22.1198 36.395 24.7707 36.395H26.9601C30.6257 36.395 32.6405 34.6109 34.2589 33.176C35.9364 31.6967 37.3846 30.4038 41.247 30.4038C41.8361 30.404 42.4243 30.451 43.0059 30.5444C43.3398 29.7114 43.5876 28.8464 43.7456 27.963C43.7465 27.9482 43.7465 27.9334 43.7456 27.9186C42.9191 27.7654 42.0802 27.6886 41.2397 27.6893C32.3639 27.6893 32.8284 33.6819 26.9527 33.6819H24.7633C20.7308 33.6819 18.0814 30.8003 18.0814 27.1139V24.1124C18.0814 20.426 20.7308 17.5458 24.7633 17.5458H26.9527C32.8284 17.5458 32.3669 23.5355 41.2397 23.5355C42.0803 23.537 42.9192 23.4602 43.7456 23.3062C43.7456 23.2929 43.7456 23.2796 43.7456 23.2648C43.5865 22.3806 43.3388 21.5148 43.0059 20.6805Z" fill="#0AE8F0"/>
</g>
<defs>
<clipPath id="clip0_7_97">
<rect width="50" height="51.1834" fill="white"/>
</clipPath>
</defs>
</svg>
