<svg width="50" height="50" viewBox="0 0 50 50" fill="none" xmlns="http://www.w3.org/2000/svg">
<g clip-path="url(#clip0_8_107)">
<path d="M25 50C38.8071 50 50 38.8071 50 25C50 11.1929 38.8071 0 25 0C11.1929 0 0 11.1929 0 25C0 38.8071 11.1929 50 25 50Z" fill="#4661EE"/>
<path d="M25.9244 36.7647C29.4853 36.7647 31.8487 35.6313 33.9286 33.8053C34.2752 33.4904 34.5588 33.0182 34.5588 32.4199C34.5588 31.444 33.708 30.6254 32.7311 30.6254C32.2584 30.6254 31.8487 30.8143 31.5651 31.0662C29.958 32.4199 28.3823 33.1756 26.0504 33.1756C21.8277 33.1756 18.771 29.6809 18.771 25.3676V25.3047C18.771 20.9914 21.8593 17.5282 26.0504 17.5282C28.1618 17.5282 29.8004 18.2838 31.313 19.5117C31.5651 19.7006 31.9432 19.8895 32.479 19.8895C33.5504 19.8895 34.4013 19.0709 34.4013 18.0005C34.4013 17.3079 34.0546 16.7726 33.6449 16.4578C31.7227 14.9781 29.4853 13.9706 26.0819 13.9706C19.4012 13.9706 14.7059 19.1024 14.7059 25.3676V25.4306C14.7059 31.7588 19.4958 36.7647 25.9244 36.7647Z" fill="white"/>
</g>
<defs>
<clipPath id="clip0_8_107">
<rect width="50" height="50" fill="white"/>
</clipPath>
</defs>
</svg>
