<svg width="4554" height="965" viewBox="0 0 4554 965" fill="none" xmlns="http://www.w3.org/2000/svg">
<path d="M4067.39 73.2652C4067.69 72.5017 4068.42 72 4069.25 72H4226.52C4227.33 72 4228.07 72.4998 4228.37 73.2612L4552.91 889.709C4553.43 891.022 4552.47 892.447 4551.05 892.447H4390.26C4389.43 892.447 4388.69 891.936 4388.39 891.162L4312.46 692.723C4312.16 691.949 4311.42 691.438 4310.59 691.438H3987.22C3986.39 691.438 3985.64 691.949 3985.35 692.723L3909.42 891.162C3909.12 891.936 3908.38 892.447 3907.55 892.447H3746.75C3745.34 892.447 3744.37 891.025 3744.89 889.713L4067.39 73.2652ZM4254.71 550.936C4256.11 550.936 4257.08 549.531 4256.57 548.221L4150.76 271.715C4150.11 270.004 4147.69 270 4147.03 271.709L4040.22 548.215C4039.71 549.526 4040.68 550.936 4042.09 550.936H4254.71Z" fill="#1B1B1B"/>
<path d="M2978.33 74C2978.33 72.8954 2979.22 72 2980.33 72H3197.57C3198.33 72 3199.03 72.4391 3199.37 73.1301L3487.31 669.211C3488.23 671.125 3491.11 670.467 3491.11 668.341V74C3491.11 72.8954 3492 72 3493.11 72H3649.09C3650.2 72 3651.09 72.8954 3651.09 74V890.447C3651.09 891.552 3650.2 892.447 3649.09 892.447H3431.85C3431.09 892.447 3430.39 892.008 3430.05 891.317L3142.12 295.236C3141.19 293.322 3138.31 293.981 3138.31 296.106V890.447C3138.31 891.552 3137.42 892.447 3136.31 892.447H2980.33C2979.22 892.447 2978.33 891.552 2978.33 890.447V74Z" fill="#1B1B1B"/>
<path d="M2141.06 74C2141.06 72.8954 2141.95 72 2143.06 72H2360.3C2361.06 72 2361.76 72.4391 2362.1 73.1301L2650.03 669.211C2650.96 671.125 2653.84 670.467 2653.84 668.341V74C2653.84 72.8954 2654.73 72 2655.84 72H2811.82C2812.93 72 2813.82 72.8954 2813.82 74V890.447C2813.82 891.552 2812.93 892.447 2811.82 892.447H2594.58C2593.81 892.447 2593.12 892.008 2592.78 891.317L2304.84 295.236C2303.92 293.322 2301.04 293.981 2301.04 296.106V890.447C2301.04 891.552 2300.15 892.447 2299.04 892.447H2143.06C2141.95 892.447 2141.06 891.552 2141.06 890.447V74Z" fill="#1B1B1B"/>
<path d="M1562.58 73.2652C1562.88 72.5017 1563.62 72 1564.44 72H1721.71C1722.53 72 1723.26 72.4998 1723.57 73.2612L2048.1 889.709C2048.63 891.022 2047.66 892.447 2046.24 892.447H1885.45C1884.62 892.447 1883.88 891.936 1883.58 891.162L1807.65 692.723C1807.36 691.949 1806.61 691.438 1805.78 691.438H1482.41C1481.58 691.438 1480.84 691.949 1480.54 692.723L1404.61 891.162C1404.31 891.936 1403.57 892.447 1402.74 892.447H1241.94C1240.53 892.447 1239.56 891.025 1240.08 889.713L1562.58 73.2652ZM1749.9 550.936C1751.3 550.936 1752.27 549.531 1751.77 548.221L1645.96 271.715C1645.3 270.004 1642.88 270 1642.22 271.709L1535.41 548.215C1534.91 549.526 1535.87 550.936 1537.28 550.936H1749.9Z" fill="#1B1B1B"/>
<mask id="mask0_613_1176" style="mask-type:alpha" maskUnits="userSpaceOnUse" x="0" y="0" width="1092" height="965">
<path d="M374.666 96.0411L30.6471 657.541C-72.0646 825.216 101.623 1025.7 281.881 947.577L429.61 883.503C503.895 851.303 588.152 851.303 662.39 883.503L810.119 947.577C990.377 1025.74 1164.06 825.216 1061.35 657.541L717.38 96.0411C638.949 -32.0137 453.098 -32.0137 374.666 96.0411Z" fill="#FF9E19"/>
</mask>
<g mask="url(#mask0_613_1176)">
<rect x="-251" y="-245" width="1889" height="1522" fill="#F0CDF5"/>
<g filter="url(#filter0_f_613_1176)">
<path d="M733 152.315C733 649.053 439.167 1609 -57.6708 1609C-554.508 1609 -421.688 1189.98 -421.688 693.24C-421.688 196.502 -856.797 -129.946 -359.96 -129.946C136.878 -129.946 733 -344.423 733 152.315Z" fill="#FF9E19"/>
</g>
<g filter="url(#filter1_f_613_1176)">
<ellipse cx="208.5" cy="-76.0002" rx="636.5" ry="636" fill="url(#paint0_linear_613_1176)"/>
</g>
<g filter="url(#filter2_f_613_1176)" style="mix-blend-mode:color-burn">
<ellipse cx="1130.95" cy="-44.1942" rx="758.754" ry="758.158" transform="rotate(145.135 1130.95 -44.1942)" fill="#F0CDF5"/>
</g>
</g>
<defs>
<filter id="filter0_f_613_1176" x="-1398" y="-976" width="2931" height="3385" filterUnits="userSpaceOnUse" color-interpolation-filters="sRGB">
<feFlood flood-opacity="0" result="BackgroundImageFix"/>
<feBlend mode="normal" in="SourceGraphic" in2="BackgroundImageFix" result="shape"/>
<feGaussianBlur stdDeviation="400" result="effect1_foregroundBlur_613_1176"/>
</filter>
<filter id="filter1_f_613_1176" x="-928" y="-1212" width="2273" height="2272" filterUnits="userSpaceOnUse" color-interpolation-filters="sRGB">
<feFlood flood-opacity="0" result="BackgroundImageFix"/>
<feBlend mode="normal" in="SourceGraphic" in2="BackgroundImageFix" result="shape"/>
<feGaussianBlur stdDeviation="250" result="effect1_foregroundBlur_613_1176"/>
</filter>
<filter id="filter2_f_613_1176" x="252.328" y="-922.613" width="1757.25" height="1756.84" filterUnits="userSpaceOnUse" color-interpolation-filters="sRGB">
<feFlood flood-opacity="0" result="BackgroundImageFix"/>
<feBlend mode="normal" in="SourceGraphic" in2="BackgroundImageFix" result="shape"/>
<feGaussianBlur stdDeviation="60" result="effect1_foregroundBlur_613_1176"/>
</filter>
<linearGradient id="paint0_linear_613_1176" x1="244" y1="-551.5" x2="180.5" y2="588.5" gradientUnits="userSpaceOnUse">
<stop stop-color="#FBFF31"/>
<stop offset="1" stop-color="white" stop-opacity="0"/>
</linearGradient>
</defs>
</svg>
