<svg width="80" height="28" viewBox="0 0 80 28" fill="none" xmlns="http://www.w3.org/2000/svg">
<g clip-path="url(#clip0_636_1359)">
<path d="M1.65977 1.19007L16.9241 0.0627137C18.7991 -0.0982058 19.2809 0.0103 20.4598 0.867311L25.3324 4.29996C26.1361 4.8903 26.4037 5.05122 26.4037 5.69398V24.5198C26.4037 25.6995 25.9752 26.3975 24.4754 26.5041L6.74942 27.5772C5.62391 27.6306 5.08782 27.4696 4.49839 26.7184L0.910345 22.0526C0.266667 21.1938 0 20.551 0 19.7998V3.06593C0 2.10134 0.428506 1.29674 1.65977 1.19007Z" fill="white"/>
<path fill-rule="evenodd" clip-rule="evenodd" d="M16.9241 0.0627137L1.65977 1.19007C0.428506 1.29674 0 2.10134 0 3.06593V19.7998C0 20.551 0.266667 21.1938 0.910345 22.0526L4.49839 26.7184C5.08782 27.4696 5.62391 27.6306 6.74942 27.5772L24.4754 26.5041C25.9743 26.3975 26.4037 25.6995 26.4037 24.5198V5.69398C26.4037 5.08433 26.1628 4.90869 25.4538 4.38823C25.413 4.35884 25.3722 4.32942 25.3315 4.29996L20.4598 0.867311C19.2809 0.0103 18.7991 -0.0982058 16.9241 0.0627137ZM7.15034 5.38593C5.70299 5.48341 5.37471 5.50548 4.55264 4.83697L2.46253 3.17444C2.25011 2.95927 2.35678 2.69076 2.89195 2.63743L17.566 1.56525C18.7982 1.45766 19.44 1.88708 19.9218 2.26226L22.4386 4.0857C22.5462 4.13996 22.8138 4.46088 22.492 4.46088L7.33793 5.37306L7.15034 5.38593ZM5.46299 24.3588V8.3772C5.46299 7.67927 5.67724 7.35743 6.31908 7.30318L23.7241 6.28433C24.3145 6.23099 24.5811 6.60616 24.5811 7.30318V23.1782C24.5811 23.8761 24.4736 24.4664 23.5099 24.5198L6.85425 25.4853C5.89057 25.5386 5.46299 25.2177 5.46299 24.3588ZM21.9044 9.23425C22.011 9.71701 21.9044 10.1998 21.4216 10.2549L20.6188 10.414V22.2136C19.9218 22.5887 19.28 22.803 18.7439 22.803C17.8869 22.803 17.6726 22.5345 17.0308 21.7308L11.7811 13.4715V21.4623L13.4418 21.8384C13.4418 21.8384 13.4418 22.8039 12.1021 22.8039L8.40828 23.0182C8.30069 22.803 8.40827 22.2669 8.78253 22.1602L9.74713 21.8926V11.3271L8.40828 11.2186C8.30069 10.7359 8.56828 10.0388 9.31862 9.98459L13.2818 9.71793L18.7439 18.0839V10.6825L17.3517 10.5225C17.2441 9.93126 17.6726 9.50183 18.2078 9.44942L21.9044 9.23425Z" fill="black"/>
<path d="M38.1006 19.5416V12.268H38.2266L43.4716 19.5416H45.1231V8.85287H43.2868V16.119H43.1608L37.9157 8.85287H36.2578V19.5406H38.1015L38.1006 19.5416ZM50.313 19.7052C52.736 19.7052 54.21 18.12 54.21 15.4901C54.21 12.8675 52.7286 11.2749 50.313 11.2749C47.9056 11.2749 46.4169 12.8749 46.4169 15.4901C46.4169 18.12 47.8836 19.7052 50.313 19.7052ZM50.313 18.1641C49.0321 18.1641 48.2992 17.1866 48.2992 15.4901C48.2992 13.8009 49.0321 12.8161 50.313 12.8161C51.5875 12.8161 52.3203 13.8009 52.3203 15.4901C52.3203 17.1866 51.5948 18.1641 50.313 18.1641ZM55.8882 9.45329V11.4901H54.6072V12.9567H55.8882V17.3788C55.8882 18.9494 56.6293 19.5793 58.4886 19.5793C58.8436 19.5793 59.1847 19.5425 59.4514 19.4901V18.0528C59.2288 18.0749 59.0882 18.0896 58.8288 18.0896C58.0592 18.0896 57.718 17.7347 57.718 16.9347V12.9567H59.4514V11.4901H57.718V9.45237H55.8882V9.45329ZM60.5521 19.5416H62.382V11.4377H60.5521V19.5416ZM61.4633 10.0979C62.0702 10.0979 62.5594 9.60778 62.5594 8.99356C62.5594 8.37839 62.0712 7.88184 61.4633 7.88184C60.8638 7.88184 60.3672 8.37839 60.3672 8.99356C60.3672 9.60778 60.8638 10.097 61.4633 10.097V10.0979ZM67.4017 19.7052C69.8238 19.7052 71.2978 18.12 71.2978 15.4901C71.2978 12.8675 69.8164 11.2749 67.4017 11.2749C64.9934 11.2749 63.5047 12.8749 63.5047 15.4901C63.5047 18.12 64.9714 19.7052 67.4017 19.7052ZM67.4017 18.1641C66.1199 18.1641 65.3861 17.1866 65.3861 15.4901C65.3861 13.8009 66.1199 12.8161 67.4017 12.8161C68.6753 12.8161 69.4091 13.8009 69.4091 15.4901C69.4091 17.1866 68.6826 18.1641 67.4017 18.1641ZM72.3911 19.5416H74.2284V14.8234C74.2284 13.6308 74.918 12.8749 76.0132 12.8749C77.1323 12.8749 77.65 13.4974 77.65 14.7342V19.5416H79.4882V14.2974C79.4882 12.3636 78.5024 11.2749 76.6955 11.2749C75.4872 11.2749 74.6725 11.8303 74.2872 12.7342H74.1613V11.4377H72.3911V19.5416Z" fill="black"/>
</g>
<defs>
<clipPath id="clip0_636_1359">
<rect width="80" height="27.5862" fill="white"/>
</clipPath>
</defs>
</svg>
